<?xml version="1.0" encoding="utf-8" standalone="no"?>
<!DOCTYPE svg PUBLIC "-//W3C//DTD SVG 1.1//EN"
  "http://www.w3.org/Graphics/SVG/1.1/DTD/svg11.dtd">
<svg height="360pt" version="1.1" viewBox="0 0 720 360" width="720pt" xmlns="http://www.w3.org/2000/svg" xmlns:xlink="http://www.w3.org/1999/xlink">
 <metadata>
  <rdf:RDF xmlns:cc="http://creativecommons.org/ns#" xmlns:dc="http://purl.org/dc/elements/1.1/" xmlns:rdf="http://www.w3.org/1999/02/22-rdf-syntax-ns#">
   <cc:Work>
    <dc:type rdf:resource="http://purl.org/dc/dcmitype/StillImage"/>
    <dc:date>2021-09-12T21:06:58.175144</dc:date>
    <dc:format>image/svg+xml</dc:format>
    <dc:creator>
     <cc:Agent>
      <dc:title>Matplotlib v3.4.3, https://matplotlib.org/</dc:title>
     </cc:Agent>
    </dc:creator>
   </cc:Work>
  </rdf:RDF>
 </metadata>
 <defs>
  <style type="text/css">*{stroke-linecap:butt;stroke-linejoin:round;}</style>
 </defs>
 <g id="figure_1">
  <g id="patch_1">
   <path d="M 0 360 
L 720 360 
L 720 0 
L 0 0 
z
" style="fill:#ffffff;"/>
  </g>
  <g id="axes_1">
   <g id="patch_2">
    <path d="M 90 320.4 
L 343.636364 320.4 
L 343.636364 43.2 
L 90 43.2 
z
" style="fill:#ffffff;"/>
   </g>
   <g id="matplotlib.axis_1">
    <g id="xtick_1">
     <g id="line2d_1">
      <defs>
       <path d="M 0 0 
L 0 3.5 
" id="mf20c20b39f" style="stroke:#000000;stroke-width:0.8;"/>
      </defs>
      <g>
       <use style="stroke:#000000;stroke-width:0.8;" x="101.528926" xlink:href="#mf20c20b39f" y="320.4"/>
      </g>
     </g>
     <g id="text_1">
      <!-- 0.0 -->
      <g transform="translate(93.577363 334.998438)scale(0.1 -0.1)">
       <defs>
        <path d="M 2034 4250 
Q 1547 4250 1301 3770 
Q 1056 3291 1056 2328 
Q 1056 1369 1301 889 
Q 1547 409 2034 409 
Q 2525 409 2770 889 
Q 3016 1369 3016 2328 
Q 3016 3291 2770 3770 
Q 2525 4250 2034 4250 
z
M 2034 4750 
Q 2819 4750 3233 4129 
Q 3647 3509 3647 2328 
Q 3647 1150 3233 529 
Q 2819 -91 2034 -91 
Q 1250 -91 836 529 
Q 422 1150 422 2328 
Q 422 3509 836 4129 
Q 1250 4750 2034 4750 
z
" id="DejaVuSans-30" transform="scale(0.015625)"/>
        <path d="M 684 794 
L 1344 794 
L 1344 0 
L 684 0 
L 684 794 
z
" id="DejaVuSans-2e" transform="scale(0.015625)"/>
       </defs>
       <use xlink:href="#DejaVuSans-30"/>
       <use x="63.623047" xlink:href="#DejaVuSans-2e"/>
       <use x="95.410156" xlink:href="#DejaVuSans-30"/>
      </g>
     </g>
    </g>
    <g id="xtick_2">
     <g id="line2d_2">
      <g>
       <use style="stroke:#000000;stroke-width:0.8;" x="147.645089" xlink:href="#mf20c20b39f" y="320.4"/>
      </g>
     </g>
     <g id="text_2">
      <!-- 0.2 -->
      <g transform="translate(139.693527 334.998438)scale(0.1 -0.1)">
       <defs>
        <path d="M 1228 531 
L 3431 531 
L 3431 0 
L 469 0 
L 469 531 
Q 828 903 1448 1529 
Q 2069 2156 2228 2338 
Q 2531 2678 2651 2914 
Q 2772 3150 2772 3378 
Q 2772 3750 2511 3984 
Q 2250 4219 1831 4219 
Q 1534 4219 1204 4116 
Q 875 4013 500 3803 
L 500 4441 
Q 881 4594 1212 4672 
Q 1544 4750 1819 4750 
Q 2544 4750 2975 4387 
Q 3406 4025 3406 3419 
Q 3406 3131 3298 2873 
Q 3191 2616 2906 2266 
Q 2828 2175 2409 1742 
Q 1991 1309 1228 531 
z
" id="DejaVuSans-32" transform="scale(0.015625)"/>
       </defs>
       <use xlink:href="#DejaVuSans-30"/>
       <use x="63.623047" xlink:href="#DejaVuSans-2e"/>
       <use x="95.410156" xlink:href="#DejaVuSans-32"/>
      </g>
     </g>
    </g>
    <g id="xtick_3">
     <g id="line2d_3">
      <g>
       <use style="stroke:#000000;stroke-width:0.8;" x="193.761253" xlink:href="#mf20c20b39f" y="320.4"/>
      </g>
     </g>
     <g id="text_3">
      <!-- 0.4 -->
      <g transform="translate(185.80969 334.998438)scale(0.1 -0.1)">
       <defs>
        <path d="M 2419 4116 
L 825 1625 
L 2419 1625 
L 2419 4116 
z
M 2253 4666 
L 3047 4666 
L 3047 1625 
L 3713 1625 
L 3713 1100 
L 3047 1100 
L 3047 0 
L 2419 0 
L 2419 1100 
L 313 1100 
L 313 1709 
L 2253 4666 
z
" id="DejaVuSans-34" transform="scale(0.015625)"/>
       </defs>
       <use xlink:href="#DejaVuSans-30"/>
       <use x="63.623047" xlink:href="#DejaVuSans-2e"/>
       <use x="95.410156" xlink:href="#DejaVuSans-34"/>
      </g>
     </g>
    </g>
    <g id="xtick_4">
     <g id="line2d_4">
      <g>
       <use style="stroke:#000000;stroke-width:0.8;" x="239.877417" xlink:href="#mf20c20b39f" y="320.4"/>
      </g>
     </g>
     <g id="text_4">
      <!-- 0.6 -->
      <g transform="translate(231.925854 334.998438)scale(0.1 -0.1)">
       <defs>
        <path d="M 2113 2584 
Q 1688 2584 1439 2293 
Q 1191 2003 1191 1497 
Q 1191 994 1439 701 
Q 1688 409 2113 409 
Q 2538 409 2786 701 
Q 3034 994 3034 1497 
Q 3034 2003 2786 2293 
Q 2538 2584 2113 2584 
z
M 3366 4563 
L 3366 3988 
Q 3128 4100 2886 4159 
Q 2644 4219 2406 4219 
Q 1781 4219 1451 3797 
Q 1122 3375 1075 2522 
Q 1259 2794 1537 2939 
Q 1816 3084 2150 3084 
Q 2853 3084 3261 2657 
Q 3669 2231 3669 1497 
Q 3669 778 3244 343 
Q 2819 -91 2113 -91 
Q 1303 -91 875 529 
Q 447 1150 447 2328 
Q 447 3434 972 4092 
Q 1497 4750 2381 4750 
Q 2619 4750 2861 4703 
Q 3103 4656 3366 4563 
z
" id="DejaVuSans-36" transform="scale(0.015625)"/>
       </defs>
       <use xlink:href="#DejaVuSans-30"/>
       <use x="63.623047" xlink:href="#DejaVuSans-2e"/>
       <use x="95.410156" xlink:href="#DejaVuSans-36"/>
      </g>
     </g>
    </g>
    <g id="xtick_5">
     <g id="line2d_5">
      <g>
       <use style="stroke:#000000;stroke-width:0.8;" x="285.99358" xlink:href="#mf20c20b39f" y="320.4"/>
      </g>
     </g>
     <g id="text_5">
      <!-- 0.8 -->
      <g transform="translate(278.042018 334.998438)scale(0.1 -0.1)">
       <defs>
        <path d="M 2034 2216 
Q 1584 2216 1326 1975 
Q 1069 1734 1069 1313 
Q 1069 891 1326 650 
Q 1584 409 2034 409 
Q 2484 409 2743 651 
Q 3003 894 3003 1313 
Q 3003 1734 2745 1975 
Q 2488 2216 2034 2216 
z
M 1403 2484 
Q 997 2584 770 2862 
Q 544 3141 544 3541 
Q 544 4100 942 4425 
Q 1341 4750 2034 4750 
Q 2731 4750 3128 4425 
Q 3525 4100 3525 3541 
Q 3525 3141 3298 2862 
Q 3072 2584 2669 2484 
Q 3125 2378 3379 2068 
Q 3634 1759 3634 1313 
Q 3634 634 3220 271 
Q 2806 -91 2034 -91 
Q 1263 -91 848 271 
Q 434 634 434 1313 
Q 434 1759 690 2068 
Q 947 2378 1403 2484 
z
M 1172 3481 
Q 1172 3119 1398 2916 
Q 1625 2713 2034 2713 
Q 2441 2713 2670 2916 
Q 2900 3119 2900 3481 
Q 2900 3844 2670 4047 
Q 2441 4250 2034 4250 
Q 1625 4250 1398 4047 
Q 1172 3844 1172 3481 
z
" id="DejaVuSans-38" transform="scale(0.015625)"/>
       </defs>
       <use xlink:href="#DejaVuSans-30"/>
       <use x="63.623047" xlink:href="#DejaVuSans-2e"/>
       <use x="95.410156" xlink:href="#DejaVuSans-38"/>
      </g>
     </g>
    </g>
    <g id="xtick_6">
     <g id="line2d_6">
      <g>
       <use style="stroke:#000000;stroke-width:0.8;" x="332.109744" xlink:href="#mf20c20b39f" y="320.4"/>
      </g>
     </g>
     <g id="text_6">
      <!-- 1.0 -->
      <g transform="translate(324.158181 334.998438)scale(0.1 -0.1)">
       <defs>
        <path d="M 794 531 
L 1825 531 
L 1825 4091 
L 703 3866 
L 703 4441 
L 1819 4666 
L 2450 4666 
L 2450 531 
L 3481 531 
L 3481 0 
L 794 0 
L 794 531 
z
" id="DejaVuSans-31" transform="scale(0.015625)"/>
       </defs>
       <use xlink:href="#DejaVuSans-31"/>
       <use x="63.623047" xlink:href="#DejaVuSans-2e"/>
       <use x="95.410156" xlink:href="#DejaVuSans-30"/>
      </g>
     </g>
    </g>
    <g id="text_7">
     <!-- $\Gamma (GHz)$ -->
     <g transform="translate(199.868182 348.676562)scale(0.1 -0.1)">
      <defs>
       <path d="M 628 0 
L 628 4666 
L 3531 4666 
L 3531 4134 
L 1259 4134 
L 1259 0 
L 628 0 
z
" id="DejaVuSans-393" transform="scale(0.015625)"/>
       <path d="M 1984 4856 
Q 1566 4138 1362 3434 
Q 1159 2731 1159 2009 
Q 1159 1288 1364 580 
Q 1569 -128 1984 -844 
L 1484 -844 
Q 1016 -109 783 600 
Q 550 1309 550 2009 
Q 550 2706 781 3412 
Q 1013 4119 1484 4856 
L 1984 4856 
z
" id="DejaVuSans-28" transform="scale(0.015625)"/>
       <path d="M 3494 697 
L 3738 1919 
L 2700 1919 
L 2797 2438 
L 4453 2438 
L 4050 384 
Q 3634 156 3143 32 
Q 2653 -91 2156 -91 
Q 1278 -91 783 396 
Q 288 884 288 1753 
Q 288 2475 589 3126 
Q 891 3778 1422 4213 
Q 1756 4484 2153 4617 
Q 2550 4750 3034 4750 
Q 3472 4750 3873 4639 
Q 4275 4528 4641 4306 
L 4513 3634 
Q 4231 3928 3853 4083 
Q 3475 4238 3047 4238 
Q 2550 4238 2172 4048 
Q 1794 3859 1497 3463 
Q 1244 3125 1098 2667 
Q 953 2209 953 1734 
Q 953 1081 1287 751 
Q 1622 422 2284 422 
Q 2616 422 2925 492 
Q 3234 563 3494 697 
z
" id="DejaVuSans-Oblique-47" transform="scale(0.015625)"/>
       <path d="M 1081 4666 
L 1716 4666 
L 1344 2753 
L 3634 2753 
L 4006 4666 
L 4641 4666 
L 3731 0 
L 3097 0 
L 3531 2222 
L 1241 2222 
L 806 0 
L 172 0 
L 1081 4666 
z
" id="DejaVuSans-Oblique-48" transform="scale(0.015625)"/>
       <path d="M 744 3500 
L 3475 3500 
L 3372 2975 
L 738 459 
L 2913 459 
L 2822 0 
L -19 0 
L 84 525 
L 2719 3041 
L 653 3041 
L 744 3500 
z
" id="DejaVuSans-Oblique-7a" transform="scale(0.015625)"/>
       <path d="M 513 4856 
L 1013 4856 
Q 1481 4119 1714 3412 
Q 1947 2706 1947 2009 
Q 1947 1309 1714 600 
Q 1481 -109 1013 -844 
L 513 -844 
Q 928 -128 1133 580 
Q 1338 1288 1338 2009 
Q 1338 2731 1133 3434 
Q 928 4138 513 4856 
z
" id="DejaVuSans-29" transform="scale(0.015625)"/>
      </defs>
      <use transform="translate(0 0.125)" xlink:href="#DejaVuSans-393"/>
      <use transform="translate(55.712891 0.125)" xlink:href="#DejaVuSans-28"/>
      <use transform="translate(94.726562 0.125)" xlink:href="#DejaVuSans-Oblique-47"/>
      <use transform="translate(172.216797 0.125)" xlink:href="#DejaVuSans-Oblique-48"/>
      <use transform="translate(247.412109 0.125)" xlink:href="#DejaVuSans-Oblique-7a"/>
      <use transform="translate(299.902344 0.125)" xlink:href="#DejaVuSans-29"/>
     </g>
    </g>
   </g>
   <g id="matplotlib.axis_2">
    <g id="ytick_1">
     <g id="line2d_7">
      <defs>
       <path d="M 0 0 
L -3.5 0 
" id="mebc4278b31" style="stroke:#000000;stroke-width:0.8;"/>
      </defs>
      <g>
       <use style="stroke:#000000;stroke-width:0.8;" x="90" xlink:href="#mebc4278b31" y="307.8"/>
      </g>
     </g>
     <g id="text_8">
      <!-- 0 -->
      <g transform="translate(76.6375 311.599219)scale(0.1 -0.1)">
       <use xlink:href="#DejaVuSans-30"/>
      </g>
     </g>
    </g>
    <g id="ytick_2">
     <g id="line2d_8">
      <g>
       <use style="stroke:#000000;stroke-width:0.8;" x="90" xlink:href="#mebc4278b31" y="268.647319"/>
      </g>
     </g>
     <g id="text_9">
      <!-- 1 -->
      <g transform="translate(76.6375 272.446538)scale(0.1 -0.1)">
       <use xlink:href="#DejaVuSans-31"/>
      </g>
     </g>
    </g>
    <g id="ytick_3">
     <g id="line2d_9">
      <g>
       <use style="stroke:#000000;stroke-width:0.8;" x="90" xlink:href="#mebc4278b31" y="229.494638"/>
      </g>
     </g>
     <g id="text_10">
      <!-- 2 -->
      <g transform="translate(76.6375 233.293856)scale(0.1 -0.1)">
       <use xlink:href="#DejaVuSans-32"/>
      </g>
     </g>
    </g>
    <g id="ytick_4">
     <g id="line2d_10">
      <g>
       <use style="stroke:#000000;stroke-width:0.8;" x="90" xlink:href="#mebc4278b31" y="190.341956"/>
      </g>
     </g>
     <g id="text_11">
      <!-- 3 -->
      <g transform="translate(76.6375 194.141175)scale(0.1 -0.1)">
       <defs>
        <path d="M 2597 2516 
Q 3050 2419 3304 2112 
Q 3559 1806 3559 1356 
Q 3559 666 3084 287 
Q 2609 -91 1734 -91 
Q 1441 -91 1130 -33 
Q 819 25 488 141 
L 488 750 
Q 750 597 1062 519 
Q 1375 441 1716 441 
Q 2309 441 2620 675 
Q 2931 909 2931 1356 
Q 2931 1769 2642 2001 
Q 2353 2234 1838 2234 
L 1294 2234 
L 1294 2753 
L 1863 2753 
Q 2328 2753 2575 2939 
Q 2822 3125 2822 3475 
Q 2822 3834 2567 4026 
Q 2313 4219 1838 4219 
Q 1578 4219 1281 4162 
Q 984 4106 628 3988 
L 628 4550 
Q 988 4650 1302 4700 
Q 1616 4750 1894 4750 
Q 2613 4750 3031 4423 
Q 3450 4097 3450 3541 
Q 3450 3153 3228 2886 
Q 3006 2619 2597 2516 
z
" id="DejaVuSans-33" transform="scale(0.015625)"/>
       </defs>
       <use xlink:href="#DejaVuSans-33"/>
      </g>
     </g>
    </g>
    <g id="ytick_5">
     <g id="line2d_11">
      <g>
       <use style="stroke:#000000;stroke-width:0.8;" x="90" xlink:href="#mebc4278b31" y="151.189275"/>
      </g>
     </g>
     <g id="text_12">
      <!-- 4 -->
      <g transform="translate(76.6375 154.988494)scale(0.1 -0.1)">
       <use xlink:href="#DejaVuSans-34"/>
      </g>
     </g>
    </g>
    <g id="ytick_6">
     <g id="line2d_12">
      <g>
       <use style="stroke:#000000;stroke-width:0.8;" x="90" xlink:href="#mebc4278b31" y="112.036594"/>
      </g>
     </g>
     <g id="text_13">
      <!-- 5 -->
      <g transform="translate(76.6375 115.835813)scale(0.1 -0.1)">
       <defs>
        <path d="M 691 4666 
L 3169 4666 
L 3169 4134 
L 1269 4134 
L 1269 2991 
Q 1406 3038 1543 3061 
Q 1681 3084 1819 3084 
Q 2600 3084 3056 2656 
Q 3513 2228 3513 1497 
Q 3513 744 3044 326 
Q 2575 -91 1722 -91 
Q 1428 -91 1123 -41 
Q 819 9 494 109 
L 494 744 
Q 775 591 1075 516 
Q 1375 441 1709 441 
Q 2250 441 2565 725 
Q 2881 1009 2881 1497 
Q 2881 1984 2565 2268 
Q 2250 2553 1709 2553 
Q 1456 2553 1204 2497 
Q 953 2441 691 2322 
L 691 4666 
z
" id="DejaVuSans-35" transform="scale(0.015625)"/>
       </defs>
       <use xlink:href="#DejaVuSans-35"/>
      </g>
     </g>
    </g>
    <g id="ytick_7">
     <g id="line2d_13">
      <g>
       <use style="stroke:#000000;stroke-width:0.8;" x="90" xlink:href="#mebc4278b31" y="72.883913"/>
      </g>
     </g>
     <g id="text_14">
      <!-- 6 -->
      <g transform="translate(76.6375 76.683131)scale(0.1 -0.1)">
       <use xlink:href="#DejaVuSans-36"/>
      </g>
     </g>
    </g>
    <g id="text_15">
     <!-- $C (fF) $ -->
     <g transform="translate(70.557812 193.85)rotate(-90)scale(0.1 -0.1)">
      <defs>
       <path d="M 4447 4306 
L 4319 3641 
Q 4019 3944 3683 4091 
Q 3347 4238 2956 4238 
Q 2422 4238 2017 3981 
Q 1613 3725 1319 3200 
Q 1131 2863 1032 2486 
Q 934 2109 934 1728 
Q 934 1091 1264 756 
Q 1594 422 2222 422 
Q 2656 422 3056 561 
Q 3456 700 3834 978 
L 3688 231 
Q 3316 72 2936 -9 
Q 2556 -91 2175 -91 
Q 1278 -91 773 396 
Q 269 884 269 1753 
Q 269 2309 461 2846 
Q 653 3384 1013 3828 
Q 1394 4300 1883 4525 
Q 2372 4750 3022 4750 
Q 3422 4750 3780 4639 
Q 4138 4528 4447 4306 
z
" id="DejaVuSans-Oblique-43" transform="scale(0.015625)"/>
       <path d="M 3059 4863 
L 2969 4384 
L 2419 4384 
Q 2106 4384 1964 4261 
Q 1822 4138 1753 3809 
L 1691 3500 
L 2638 3500 
L 2553 3053 
L 1606 3053 
L 1013 0 
L 434 0 
L 1031 3053 
L 481 3053 
L 563 3500 
L 1113 3500 
L 1159 3744 
Q 1278 4363 1576 4613 
Q 1875 4863 2516 4863 
L 3059 4863 
z
" id="DejaVuSans-Oblique-66" transform="scale(0.015625)"/>
       <path d="M 1081 4666 
L 3756 4666 
L 3653 4134 
L 1606 4134 
L 1338 2759 
L 3188 2759 
L 3084 2228 
L 1234 2228 
L 800 0 
L 172 0 
L 1081 4666 
z
" id="DejaVuSans-Oblique-46" transform="scale(0.015625)"/>
      </defs>
      <use transform="translate(0 0.015625)" xlink:href="#DejaVuSans-Oblique-43"/>
      <use transform="translate(69.824219 0.015625)" xlink:href="#DejaVuSans-28"/>
      <use transform="translate(108.837891 0.015625)" xlink:href="#DejaVuSans-Oblique-66"/>
      <use transform="translate(144.042969 0.015625)" xlink:href="#DejaVuSans-Oblique-46"/>
      <use transform="translate(201.5625 0.015625)" xlink:href="#DejaVuSans-29"/>
     </g>
    </g>
   </g>
   <g id="line2d_14">
    <path clip-path="url(#pc9b8e77511)" d="M 101.528926 307.8 
L 104.514947 307.688964 
L 107.547085 307.35258 
L 110.68529 306.778553 
L 114.005654 305.941989 
L 117.618855 304.797758 
L 121.709359 303.262403 
L 126.680681 301.147647 
L 134.107689 297.717233 
L 146.381506 292.059783 
L 153.149053 289.204733 
L 159.413934 286.801814 
L 165.581971 284.673994 
L 171.846852 282.748612 
L 178.342314 280.986331 
L 185.181341 279.363171 
L 192.474612 277.863118 
L 200.346641 276.473948 
L 208.935777 275.187402 
L 218.408037 273.997162 
L 228.975555 272.897657 
L 240.901195 271.885156 
L 254.530828 270.956424 
L 270.325614 270.108894 
L 288.917345 269.340466 
L 311.200675 268.649284 
L 332.107438 268.159818 
L 332.107438 268.159818 
" style="fill:none;stroke:#1f77b4;stroke-linecap:square;stroke-width:1.5;"/>
   </g>
   <g id="line2d_15">
    <path clip-path="url(#pc9b8e77511)" d="M 101.528926 307.8 
L 103.63874 307.688997 
L 105.769307 307.353506 
L 107.952907 306.782658 
L 110.221822 305.956714 
L 112.615251 304.844874 
L 115.183922 303.401388 
L 117.997008 301.559303 
L 121.1698 299.207883 
L 124.923655 296.137548 
L 129.865002 291.787747 
L 146.614393 276.820312 
L 151.747122 272.660398 
L 156.559344 269.043617 
L 161.247052 265.796756 
L 165.916313 262.832213 
L 170.633997 260.099884 
L 175.457748 257.563204 
L 180.435987 255.197171 
L 185.612527 252.984014 
L 191.038093 250.907528 
L 196.763415 248.956111 
L 202.843831 247.120585 
L 209.343905 245.392948 
L 216.337421 243.76685 
L 223.909695 242.237326 
L 232.166794 240.799527 
L 241.230926 239.450394 
L 251.25658 238.186758 
L 262.432832 237.006332 
L 275.001793 235.906899 
L 289.270134 234.886907 
L 305.641372 233.944841 
L 324.65276 233.079434 
L 332.107438 232.792646 
L 332.107438 232.792646 
" style="fill:none;stroke:#ff7f0e;stroke-linecap:square;stroke-width:1.5;"/>
   </g>
   <g id="line2d_16">
    <path clip-path="url(#pc9b8e77511)" d="M 101.528926 307.8 
L 102.863989 307.688799 
L 104.212886 307.351477 
L 105.598677 306.7723 
L 107.042113 305.923597 
L 108.568558 304.762073 
L 110.198764 303.234743 
L 111.958096 301.273119 
L 113.878834 298.788276 
L 116.000178 295.668928 
L 118.388995 291.747067 
L 121.151353 286.76747 
L 124.515527 280.221081 
L 129.219376 270.535202 
L 140.446356 247.269061 
L 144.935765 238.576419 
L 148.977846 231.22563 
L 152.798571 224.731857 
L 156.499393 218.87487 
L 160.135652 213.531813 
L 163.746548 208.617583 
L 167.359749 204.072765 
L 170.998315 199.850915 
L 174.682996 195.914248 
L 178.43224 192.232514 
L 182.264493 188.779789 
L 186.200508 185.532312 
L 190.25873 182.472173 
L 194.457607 179.584512 
L 198.822502 176.852948 
L 203.376473 174.266063 
L 208.14719 171.812756 
L 213.164629 169.48384 
L 218.463376 167.271008 
L 224.080325 165.167958 
L 230.061591 163.167919 
L 236.455597 161.266519 
L 243.322294 159.458982 
L 250.72855 157.742014 
L 258.755068 156.112401 
L 267.496387 154.56767 
L 277.065491 153.105767 
L 287.600728 151.724739 
L 299.270424 150.423054 
L 312.284405 149.199284 
L 326.900923 148.052592 
L 332.107438 147.692444 
L 332.107438 147.692444 
" style="fill:none;stroke:#2ca02c;stroke-linecap:square;stroke-width:1.5;"/>
   </g>
   <g id="line2d_17">
    <path clip-path="url(#pc9b8e77511)" d="M 101.528926 307.8 
L 102.472001 307.688998 
L 103.431217 307.348947 
L 104.429632 306.753615 
L 105.49261 305.852937 
L 106.638597 304.580144 
L 107.883733 302.85295 
L 109.246466 300.56861 
L 110.747547 297.602156 
L 112.41234 293.800931 
L 114.275433 288.971786 
L 116.394471 282.837417 
L 118.870909 274.957316 
L 121.919187 264.474298 
L 126.274859 248.616094 
L 135.740202 213.995783 
L 139.819176 200.044175 
L 143.464659 188.35118 
L 146.89109 178.094471 
L 150.190701 168.907937 
L 153.414221 160.581625 
L 156.593931 152.9765 
L 159.750582 145.995959 
L 162.902622 139.559143 
L 166.063885 133.603759 
L 169.248206 128.074878 
L 172.464809 122.931768 
L 175.725221 118.134789 
L 179.040973 113.649475 
L 182.421288 109.448768 
L 185.877695 105.506323 
L 189.424028 101.797212 
L 193.074122 98.300519 
L 196.841813 94.998741 
L 200.740934 91.877259 
L 204.789933 88.920644 
L 209.009562 86.115145 
L 213.420573 83.450103 
L 218.04833 80.914942 
L 222.918197 78.501958 
L 228.06015 76.203724 
L 233.51108 74.012643 
L 239.307882 71.924048 
L 245.496671 69.932619 
L 252.130481 68.033895 
L 259.266958 66.22506 
L 266.97758 64.502753 
L 275.345358 62.864397 
L 284.467135 61.308105 
L 294.460508 59.832024 
L 305.46613 58.434783 
L 317.654632 57.11531 
L 331.240454 55.872326 
L 332.107438 55.8 
L 332.107438 55.8 
" style="fill:none;stroke:#d62728;stroke-linecap:square;stroke-width:1.5;"/>
   </g>
   <g id="patch_3">
    <path d="M 90 320.4 
L 90 43.2 
" style="fill:none;stroke:#000000;stroke-linecap:square;stroke-linejoin:miter;stroke-width:0.8;"/>
   </g>
   <g id="patch_4">
    <path d="M 343.636364 320.4 
L 343.636364 43.2 
" style="fill:none;stroke:#000000;stroke-linecap:square;stroke-linejoin:miter;stroke-width:0.8;"/>
   </g>
   <g id="patch_5">
    <path d="M 90 320.4 
L 343.636364 320.4 
" style="fill:none;stroke:#000000;stroke-linecap:square;stroke-linejoin:miter;stroke-width:0.8;"/>
   </g>
   <g id="patch_6">
    <path d="M 90 43.2 
L 343.636364 43.2 
" style="fill:none;stroke:#000000;stroke-linecap:square;stroke-linejoin:miter;stroke-width:0.8;"/>
   </g>
   <g id="text_16">
    <!--  Capacitance vs $\Gamma$  -->
    <g transform="translate(161.978182 37.2)scale(0.12 -0.12)">
     <defs>
      <path id="DejaVuSans-20" transform="scale(0.015625)"/>
      <path d="M 4122 4306 
L 4122 3641 
Q 3803 3938 3442 4084 
Q 3081 4231 2675 4231 
Q 1875 4231 1450 3742 
Q 1025 3253 1025 2328 
Q 1025 1406 1450 917 
Q 1875 428 2675 428 
Q 3081 428 3442 575 
Q 3803 722 4122 1019 
L 4122 359 
Q 3791 134 3420 21 
Q 3050 -91 2638 -91 
Q 1578 -91 968 557 
Q 359 1206 359 2328 
Q 359 3453 968 4101 
Q 1578 4750 2638 4750 
Q 3056 4750 3426 4639 
Q 3797 4528 4122 4306 
z
" id="DejaVuSans-43" transform="scale(0.015625)"/>
      <path d="M 2194 1759 
Q 1497 1759 1228 1600 
Q 959 1441 959 1056 
Q 959 750 1161 570 
Q 1363 391 1709 391 
Q 2188 391 2477 730 
Q 2766 1069 2766 1631 
L 2766 1759 
L 2194 1759 
z
M 3341 1997 
L 3341 0 
L 2766 0 
L 2766 531 
Q 2569 213 2275 61 
Q 1981 -91 1556 -91 
Q 1019 -91 701 211 
Q 384 513 384 1019 
Q 384 1609 779 1909 
Q 1175 2209 1959 2209 
L 2766 2209 
L 2766 2266 
Q 2766 2663 2505 2880 
Q 2244 3097 1772 3097 
Q 1472 3097 1187 3025 
Q 903 2953 641 2809 
L 641 3341 
Q 956 3463 1253 3523 
Q 1550 3584 1831 3584 
Q 2591 3584 2966 3190 
Q 3341 2797 3341 1997 
z
" id="DejaVuSans-61" transform="scale(0.015625)"/>
      <path d="M 1159 525 
L 1159 -1331 
L 581 -1331 
L 581 3500 
L 1159 3500 
L 1159 2969 
Q 1341 3281 1617 3432 
Q 1894 3584 2278 3584 
Q 2916 3584 3314 3078 
Q 3713 2572 3713 1747 
Q 3713 922 3314 415 
Q 2916 -91 2278 -91 
Q 1894 -91 1617 61 
Q 1341 213 1159 525 
z
M 3116 1747 
Q 3116 2381 2855 2742 
Q 2594 3103 2138 3103 
Q 1681 3103 1420 2742 
Q 1159 2381 1159 1747 
Q 1159 1113 1420 752 
Q 1681 391 2138 391 
Q 2594 391 2855 752 
Q 3116 1113 3116 1747 
z
" id="DejaVuSans-70" transform="scale(0.015625)"/>
      <path d="M 3122 3366 
L 3122 2828 
Q 2878 2963 2633 3030 
Q 2388 3097 2138 3097 
Q 1578 3097 1268 2742 
Q 959 2388 959 1747 
Q 959 1106 1268 751 
Q 1578 397 2138 397 
Q 2388 397 2633 464 
Q 2878 531 3122 666 
L 3122 134 
Q 2881 22 2623 -34 
Q 2366 -91 2075 -91 
Q 1284 -91 818 406 
Q 353 903 353 1747 
Q 353 2603 823 3093 
Q 1294 3584 2113 3584 
Q 2378 3584 2631 3529 
Q 2884 3475 3122 3366 
z
" id="DejaVuSans-63" transform="scale(0.015625)"/>
      <path d="M 603 3500 
L 1178 3500 
L 1178 0 
L 603 0 
L 603 3500 
z
M 603 4863 
L 1178 4863 
L 1178 4134 
L 603 4134 
L 603 4863 
z
" id="DejaVuSans-69" transform="scale(0.015625)"/>
      <path d="M 1172 4494 
L 1172 3500 
L 2356 3500 
L 2356 3053 
L 1172 3053 
L 1172 1153 
Q 1172 725 1289 603 
Q 1406 481 1766 481 
L 2356 481 
L 2356 0 
L 1766 0 
Q 1100 0 847 248 
Q 594 497 594 1153 
L 594 3053 
L 172 3053 
L 172 3500 
L 594 3500 
L 594 4494 
L 1172 4494 
z
" id="DejaVuSans-74" transform="scale(0.015625)"/>
      <path d="M 3513 2113 
L 3513 0 
L 2938 0 
L 2938 2094 
Q 2938 2591 2744 2837 
Q 2550 3084 2163 3084 
Q 1697 3084 1428 2787 
Q 1159 2491 1159 1978 
L 1159 0 
L 581 0 
L 581 3500 
L 1159 3500 
L 1159 2956 
Q 1366 3272 1645 3428 
Q 1925 3584 2291 3584 
Q 2894 3584 3203 3211 
Q 3513 2838 3513 2113 
z
" id="DejaVuSans-6e" transform="scale(0.015625)"/>
      <path d="M 3597 1894 
L 3597 1613 
L 953 1613 
Q 991 1019 1311 708 
Q 1631 397 2203 397 
Q 2534 397 2845 478 
Q 3156 559 3463 722 
L 3463 178 
Q 3153 47 2828 -22 
Q 2503 -91 2169 -91 
Q 1331 -91 842 396 
Q 353 884 353 1716 
Q 353 2575 817 3079 
Q 1281 3584 2069 3584 
Q 2775 3584 3186 3129 
Q 3597 2675 3597 1894 
z
M 3022 2063 
Q 3016 2534 2758 2815 
Q 2500 3097 2075 3097 
Q 1594 3097 1305 2825 
Q 1016 2553 972 2059 
L 3022 2063 
z
" id="DejaVuSans-65" transform="scale(0.015625)"/>
      <path d="M 191 3500 
L 800 3500 
L 1894 563 
L 2988 3500 
L 3597 3500 
L 2284 0 
L 1503 0 
L 191 3500 
z
" id="DejaVuSans-76" transform="scale(0.015625)"/>
      <path d="M 2834 3397 
L 2834 2853 
Q 2591 2978 2328 3040 
Q 2066 3103 1784 3103 
Q 1356 3103 1142 2972 
Q 928 2841 928 2578 
Q 928 2378 1081 2264 
Q 1234 2150 1697 2047 
L 1894 2003 
Q 2506 1872 2764 1633 
Q 3022 1394 3022 966 
Q 3022 478 2636 193 
Q 2250 -91 1575 -91 
Q 1294 -91 989 -36 
Q 684 19 347 128 
L 347 722 
Q 666 556 975 473 
Q 1284 391 1588 391 
Q 1994 391 2212 530 
Q 2431 669 2431 922 
Q 2431 1156 2273 1281 
Q 2116 1406 1581 1522 
L 1381 1569 
Q 847 1681 609 1914 
Q 372 2147 372 2553 
Q 372 3047 722 3315 
Q 1072 3584 1716 3584 
Q 2034 3584 2315 3537 
Q 2597 3491 2834 3397 
z
" id="DejaVuSans-73" transform="scale(0.015625)"/>
     </defs>
     <use transform="translate(0 0.015625)" xlink:href="#DejaVuSans-20"/>
     <use transform="translate(31.787109 0.015625)" xlink:href="#DejaVuSans-43"/>
     <use transform="translate(101.611328 0.015625)" xlink:href="#DejaVuSans-61"/>
     <use transform="translate(162.890625 0.015625)" xlink:href="#DejaVuSans-70"/>
     <use transform="translate(226.367188 0.015625)" xlink:href="#DejaVuSans-61"/>
     <use transform="translate(287.646484 0.015625)" xlink:href="#DejaVuSans-63"/>
     <use transform="translate(342.626953 0.015625)" xlink:href="#DejaVuSans-69"/>
     <use transform="translate(370.410156 0.015625)" xlink:href="#DejaVuSans-74"/>
     <use transform="translate(409.619141 0.015625)" xlink:href="#DejaVuSans-61"/>
     <use transform="translate(470.898438 0.015625)" xlink:href="#DejaVuSans-6e"/>
     <use transform="translate(534.277344 0.015625)" xlink:href="#DejaVuSans-63"/>
     <use transform="translate(589.257812 0.015625)" xlink:href="#DejaVuSans-65"/>
     <use transform="translate(650.78125 0.015625)" xlink:href="#DejaVuSans-20"/>
     <use transform="translate(682.568359 0.015625)" xlink:href="#DejaVuSans-76"/>
     <use transform="translate(741.748047 0.015625)" xlink:href="#DejaVuSans-73"/>
     <use transform="translate(793.847656 0.015625)" xlink:href="#DejaVuSans-20"/>
     <use transform="translate(825.634766 0.015625)" xlink:href="#DejaVuSans-393"/>
     <use transform="translate(881.347656 0.015625)" xlink:href="#DejaVuSans-20"/>
    </g>
   </g>
   <g id="legend_1">
    <g id="patch_7">
     <path d="M 97 109.9125 
L 178.48125 109.9125 
Q 180.48125 109.9125 180.48125 107.9125 
L 180.48125 50.2 
Q 180.48125 48.2 178.48125 48.2 
L 97 48.2 
Q 95 48.2 95 50.2 
L 95 107.9125 
Q 95 109.9125 97 109.9125 
z
" style="fill:#ffffff;opacity:0.8;stroke:#cccccc;stroke-linejoin:miter;"/>
    </g>
    <g id="line2d_18">
     <path d="M 99 56.298437 
L 119 56.298437 
" style="fill:none;stroke:#1f77b4;stroke-linecap:square;stroke-width:1.5;"/>
    </g>
    <g id="line2d_19"/>
    <g id="text_17">
     <!-- N=1 -->
     <g transform="translate(127 59.798437)scale(0.1 -0.1)">
      <defs>
       <path d="M 628 4666 
L 1478 4666 
L 3547 763 
L 3547 4666 
L 4159 4666 
L 4159 0 
L 3309 0 
L 1241 3903 
L 1241 0 
L 628 0 
L 628 4666 
z
" id="DejaVuSans-4e" transform="scale(0.015625)"/>
       <path d="M 678 2906 
L 4684 2906 
L 4684 2381 
L 678 2381 
L 678 2906 
z
M 678 1631 
L 4684 1631 
L 4684 1100 
L 678 1100 
L 678 1631 
z
" id="DejaVuSans-3d" transform="scale(0.015625)"/>
      </defs>
      <use xlink:href="#DejaVuSans-4e"/>
      <use x="74.804688" xlink:href="#DejaVuSans-3d"/>
      <use x="158.59375" xlink:href="#DejaVuSans-31"/>
     </g>
    </g>
    <g id="line2d_20">
     <path d="M 99 70.976562 
L 119 70.976562 
" style="fill:none;stroke:#ff7f0e;stroke-linecap:square;stroke-width:1.5;"/>
    </g>
    <g id="line2d_21"/>
    <g id="text_18">
     <!-- N=2 -->
     <g transform="translate(127 74.476562)scale(0.1 -0.1)">
      <use xlink:href="#DejaVuSans-4e"/>
      <use x="74.804688" xlink:href="#DejaVuSans-3d"/>
      <use x="158.59375" xlink:href="#DejaVuSans-32"/>
     </g>
    </g>
    <g id="line2d_22">
     <path d="M 99 85.654687 
L 119 85.654687 
" style="fill:none;stroke:#2ca02c;stroke-linecap:square;stroke-width:1.5;"/>
    </g>
    <g id="line2d_23"/>
    <g id="text_19">
     <!-- N=5 -->
     <g transform="translate(127 89.154687)scale(0.1 -0.1)">
      <use xlink:href="#DejaVuSans-4e"/>
      <use x="74.804688" xlink:href="#DejaVuSans-3d"/>
      <use x="158.59375" xlink:href="#DejaVuSans-35"/>
     </g>
    </g>
    <g id="line2d_24">
     <path d="M 99 100.332812 
L 119 100.332812 
" style="fill:none;stroke:#d62728;stroke-linecap:square;stroke-width:1.5;"/>
    </g>
    <g id="line2d_25"/>
    <g id="text_20">
     <!-- N=1e+01 -->
     <g transform="translate(127 103.832812)scale(0.1 -0.1)">
      <defs>
       <path d="M 2944 4013 
L 2944 2272 
L 4684 2272 
L 4684 1741 
L 2944 1741 
L 2944 0 
L 2419 0 
L 2419 1741 
L 678 1741 
L 678 2272 
L 2419 2272 
L 2419 4013 
L 2944 4013 
z
" id="DejaVuSans-2b" transform="scale(0.015625)"/>
      </defs>
      <use xlink:href="#DejaVuSans-4e"/>
      <use x="74.804688" xlink:href="#DejaVuSans-3d"/>
      <use x="158.59375" xlink:href="#DejaVuSans-31"/>
      <use x="222.216797" xlink:href="#DejaVuSans-65"/>
      <use x="283.740234" xlink:href="#DejaVuSans-2b"/>
      <use x="367.529297" xlink:href="#DejaVuSans-30"/>
      <use x="431.152344" xlink:href="#DejaVuSans-31"/>
     </g>
    </g>
   </g>
  </g>
  <g id="axes_2">
   <g id="patch_8">
    <path d="M 394.363636 320.4 
L 648 320.4 
L 648 43.2 
L 394.363636 43.2 
z
" style="fill:#ffffff;"/>
   </g>
   <g id="matplotlib.axis_3">
    <g id="xtick_7">
     <g id="line2d_26">
      <g>
       <use style="stroke:#000000;stroke-width:0.8;" x="405.892562" xlink:href="#mf20c20b39f" y="320.4"/>
      </g>
     </g>
     <g id="text_21">
      <!-- 0.0 -->
      <g transform="translate(397.940999 334.998438)scale(0.1 -0.1)">
       <use xlink:href="#DejaVuSans-30"/>
       <use x="63.623047" xlink:href="#DejaVuSans-2e"/>
       <use x="95.410156" xlink:href="#DejaVuSans-30"/>
      </g>
     </g>
    </g>
    <g id="xtick_8">
     <g id="line2d_27">
      <g>
       <use style="stroke:#000000;stroke-width:0.8;" x="452.008726" xlink:href="#mf20c20b39f" y="320.4"/>
      </g>
     </g>
     <g id="text_22">
      <!-- 0.2 -->
      <g transform="translate(444.057163 334.998438)scale(0.1 -0.1)">
       <use xlink:href="#DejaVuSans-30"/>
       <use x="63.623047" xlink:href="#DejaVuSans-2e"/>
       <use x="95.410156" xlink:href="#DejaVuSans-32"/>
      </g>
     </g>
    </g>
    <g id="xtick_9">
     <g id="line2d_28">
      <g>
       <use style="stroke:#000000;stroke-width:0.8;" x="498.124889" xlink:href="#mf20c20b39f" y="320.4"/>
      </g>
     </g>
     <g id="text_23">
      <!-- 0.4 -->
      <g transform="translate(490.173327 334.998438)scale(0.1 -0.1)">
       <use xlink:href="#DejaVuSans-30"/>
       <use x="63.623047" xlink:href="#DejaVuSans-2e"/>
       <use x="95.410156" xlink:href="#DejaVuSans-34"/>
      </g>
     </g>
    </g>
    <g id="xtick_10">
     <g id="line2d_29">
      <g>
       <use style="stroke:#000000;stroke-width:0.8;" x="544.241053" xlink:href="#mf20c20b39f" y="320.4"/>
      </g>
     </g>
     <g id="text_24">
      <!-- 0.6 -->
      <g transform="translate(536.28949 334.998438)scale(0.1 -0.1)">
       <use xlink:href="#DejaVuSans-30"/>
       <use x="63.623047" xlink:href="#DejaVuSans-2e"/>
       <use x="95.410156" xlink:href="#DejaVuSans-36"/>
      </g>
     </g>
    </g>
    <g id="xtick_11">
     <g id="line2d_30">
      <g>
       <use style="stroke:#000000;stroke-width:0.8;" x="590.357217" xlink:href="#mf20c20b39f" y="320.4"/>
      </g>
     </g>
     <g id="text_25">
      <!-- 0.8 -->
      <g transform="translate(582.405654 334.998438)scale(0.1 -0.1)">
       <use xlink:href="#DejaVuSans-30"/>
       <use x="63.623047" xlink:href="#DejaVuSans-2e"/>
       <use x="95.410156" xlink:href="#DejaVuSans-38"/>
      </g>
     </g>
    </g>
    <g id="xtick_12">
     <g id="line2d_31">
      <g>
       <use style="stroke:#000000;stroke-width:0.8;" x="636.47338" xlink:href="#mf20c20b39f" y="320.4"/>
      </g>
     </g>
     <g id="text_26">
      <!-- 1.0 -->
      <g transform="translate(628.521818 334.998438)scale(0.1 -0.1)">
       <use xlink:href="#DejaVuSans-31"/>
       <use x="63.623047" xlink:href="#DejaVuSans-2e"/>
       <use x="95.410156" xlink:href="#DejaVuSans-30"/>
      </g>
     </g>
    </g>
    <g id="text_27">
     <!-- $\Gamma (GHz)$ -->
     <g transform="translate(504.231818 348.676562)scale(0.1 -0.1)">
      <use transform="translate(0 0.125)" xlink:href="#DejaVuSans-393"/>
      <use transform="translate(55.712891 0.125)" xlink:href="#DejaVuSans-28"/>
      <use transform="translate(94.726562 0.125)" xlink:href="#DejaVuSans-Oblique-47"/>
      <use transform="translate(172.216797 0.125)" xlink:href="#DejaVuSans-Oblique-48"/>
      <use transform="translate(247.412109 0.125)" xlink:href="#DejaVuSans-Oblique-7a"/>
      <use transform="translate(299.902344 0.125)" xlink:href="#DejaVuSans-29"/>
     </g>
    </g>
   </g>
   <g id="matplotlib.axis_4">
    <g id="ytick_8">
     <g id="line2d_32">
      <g>
       <use style="stroke:#000000;stroke-width:0.8;" x="394.363636" xlink:href="#mebc4278b31" y="307.8"/>
      </g>
     </g>
     <g id="text_28">
      <!-- 0.0 -->
      <g transform="translate(371.460511 311.599219)scale(0.1 -0.1)">
       <use xlink:href="#DejaVuSans-30"/>
       <use x="63.623047" xlink:href="#DejaVuSans-2e"/>
       <use x="95.410156" xlink:href="#DejaVuSans-30"/>
      </g>
     </g>
    </g>
    <g id="ytick_9">
     <g id="line2d_33">
      <g>
       <use style="stroke:#000000;stroke-width:0.8;" x="394.363636" xlink:href="#mebc4278b31" y="251.581499"/>
      </g>
     </g>
     <g id="text_29">
      <!-- 0.2 -->
      <g transform="translate(371.460511 255.380718)scale(0.1 -0.1)">
       <use xlink:href="#DejaVuSans-30"/>
       <use x="63.623047" xlink:href="#DejaVuSans-2e"/>
       <use x="95.410156" xlink:href="#DejaVuSans-32"/>
      </g>
     </g>
    </g>
    <g id="ytick_10">
     <g id="line2d_34">
      <g>
       <use style="stroke:#000000;stroke-width:0.8;" x="394.363636" xlink:href="#mebc4278b31" y="195.362999"/>
      </g>
     </g>
     <g id="text_30">
      <!-- 0.4 -->
      <g transform="translate(371.460511 199.162218)scale(0.1 -0.1)">
       <use xlink:href="#DejaVuSans-30"/>
       <use x="63.623047" xlink:href="#DejaVuSans-2e"/>
       <use x="95.410156" xlink:href="#DejaVuSans-34"/>
      </g>
     </g>
    </g>
    <g id="ytick_11">
     <g id="line2d_35">
      <g>
       <use style="stroke:#000000;stroke-width:0.8;" x="394.363636" xlink:href="#mebc4278b31" y="139.144498"/>
      </g>
     </g>
     <g id="text_31">
      <!-- 0.6 -->
      <g transform="translate(371.460511 142.943717)scale(0.1 -0.1)">
       <use xlink:href="#DejaVuSans-30"/>
       <use x="63.623047" xlink:href="#DejaVuSans-2e"/>
       <use x="95.410156" xlink:href="#DejaVuSans-36"/>
      </g>
     </g>
    </g>
    <g id="ytick_12">
     <g id="line2d_36">
      <g>
       <use style="stroke:#000000;stroke-width:0.8;" x="394.363636" xlink:href="#mebc4278b31" y="82.925998"/>
      </g>
     </g>
     <g id="text_32">
      <!-- 0.8 -->
      <g transform="translate(371.460511 86.725216)scale(0.1 -0.1)">
       <use xlink:href="#DejaVuSans-30"/>
       <use x="63.623047" xlink:href="#DejaVuSans-2e"/>
       <use x="95.410156" xlink:href="#DejaVuSans-38"/>
      </g>
     </g>
    </g>
    <g id="text_33">
     <!-- $ S \ (\mu \Omega^{-1}) $ -->
     <g transform="translate(365.360511 202.85)rotate(-90)scale(0.1 -0.1)">
      <defs>
       <path d="M 3859 4513 
L 3738 3897 
Q 3422 4066 3111 4152 
Q 2800 4238 2509 4238 
Q 1944 4238 1609 3991 
Q 1275 3744 1275 3334 
Q 1275 3109 1398 2989 
Q 1522 2869 2034 2731 
L 2413 2638 
Q 3053 2472 3303 2217 
Q 3553 1963 3553 1503 
Q 3553 797 2998 353 
Q 2444 -91 1538 -91 
Q 1166 -91 791 -17 
Q 416 56 38 206 
L 166 856 
Q 513 641 861 531 
Q 1209 422 1556 422 
Q 2147 422 2503 684 
Q 2859 947 2859 1369 
Q 2859 1650 2717 1795 
Q 2575 1941 2106 2059 
L 1728 2156 
Q 1081 2325 845 2545 
Q 609 2766 609 3163 
Q 609 3859 1145 4304 
Q 1681 4750 2541 4750 
Q 2875 4750 3203 4690 
Q 3531 4631 3859 4513 
z
" id="DejaVuSans-Oblique-53" transform="scale(0.015625)"/>
       <path d="M -84 -1331 
L 856 3500 
L 1434 3500 
L 1009 1322 
Q 997 1256 987 1175 
Q 978 1094 978 1013 
Q 978 722 1161 565 
Q 1344 409 1684 409 
Q 2147 409 2431 671 
Q 2716 934 2816 1459 
L 3213 3500 
L 3788 3500 
L 3266 809 
Q 3253 750 3248 706 
Q 3244 663 3244 628 
Q 3244 531 3283 486 
Q 3322 441 3406 441 
Q 3438 441 3492 456 
Q 3547 472 3647 513 
L 3559 50 
Q 3422 -19 3297 -55 
Q 3172 -91 3053 -91 
Q 2847 -91 2730 40 
Q 2613 172 2613 403 
Q 2438 153 2195 31 
Q 1953 -91 1625 -91 
Q 1334 -91 1117 43 
Q 900 178 831 397 
L 494 -1331 
L -84 -1331 
z
" id="DejaVuSans-Oblique-3bc" transform="scale(0.015625)"/>
       <path d="M 4647 556 
L 4647 0 
L 2772 0 
L 2772 556 
Q 3325 859 3634 1378 
Q 3944 1897 3944 2528 
Q 3944 3278 3531 3731 
Q 3119 4184 2444 4184 
Q 1769 4184 1355 3729 
Q 941 3275 941 2528 
Q 941 1897 1250 1378 
Q 1563 859 2119 556 
L 2119 0 
L 244 0 
L 244 556 
L 1241 556 
Q 747 991 519 1456 
Q 294 1922 294 2497 
Q 294 3491 894 4106 
Q 1491 4722 2444 4722 
Q 3391 4722 3994 4106 
Q 4594 3494 4594 2528 
Q 4594 1922 4372 1459 
Q 4150 997 3647 556 
L 4647 556 
z
" id="DejaVuSans-3a9" transform="scale(0.015625)"/>
       <path d="M 678 2272 
L 4684 2272 
L 4684 1741 
L 678 1741 
L 678 2272 
z
" id="DejaVuSans-2212" transform="scale(0.015625)"/>
      </defs>
      <use transform="translate(0 0.684375)" xlink:href="#DejaVuSans-Oblique-53"/>
      <use transform="translate(95.946941 0.684375)" xlink:href="#DejaVuSans-28"/>
      <use transform="translate(134.960613 0.684375)" xlink:href="#DejaVuSans-Oblique-3bc"/>
      <use transform="translate(198.58366 0.684375)" xlink:href="#DejaVuSans-3a9"/>
      <use transform="translate(275.956707 38.965625)scale(0.7)" xlink:href="#DejaVuSans-2212"/>
      <use transform="translate(334.60905 38.965625)scale(0.7)" xlink:href="#DejaVuSans-31"/>
      <use transform="translate(381.879558 0.684375)" xlink:href="#DejaVuSans-29"/>
     </g>
    </g>
   </g>
   <g id="line2d_37">
    <path clip-path="url(#pb198bbeb92)" d="M 405.892562 307.8 
L 413.665441 297.140159 
L 417.864318 291.768482 
L 421.438321 287.548362 
L 424.691816 284.043692 
L 427.753929 281.066558 
L 430.696141 278.511936 
L 433.566872 276.310635 
L 436.403016 274.413568 
L 439.236854 272.783682 
L 442.100668 271.392027 
L 445.024433 270.218206 
L 448.04043 269.247379 
L 451.185552 268.469638 
L 454.50361 267.879949 
L 458.047637 267.478427 
L 461.884502 267.270635 
L 466.106437 267.268494 
L 470.849484 267.493327 
L 476.323473 267.981661 
L 482.908861 268.800812 
L 491.463409 270.102107 
L 505.487335 272.493365 
L 529.541526 276.576852 
L 544.711438 278.909082 
L 559.514726 280.959003 
L 574.749201 282.842404 
L 590.827601 284.603745 
L 608.065823 286.265675 
L 626.761316 287.841557 
L 636.471074 288.579435 
L 636.471074 288.579435 
" style="fill:none;stroke:#1f77b4;stroke-linecap:square;stroke-width:1.5;"/>
   </g>
   <g id="line2d_38">
    <path clip-path="url(#pb198bbeb92)" d="M 405.892562 307.8 
L 413.155858 288.430235 
L 417.054979 278.678538 
L 420.345368 271.031089 
L 423.308331 264.692967 
L 426.05916 259.321551 
L 428.660112 254.720119 
L 431.150385 250.757213 
L 433.557649 247.33632 
L 435.904961 244.380465 
L 438.208464 241.831873 
L 440.484296 239.640927 
L 442.7486 237.766078 
L 445.017515 236.17338 
L 447.307183 234.835796 
L 449.638355 233.73047 
L 452.029478 232.842403 
L 454.505916 232.160091 
L 457.097644 231.677838 
L 459.834639 231.396434 
L 462.760709 231.321561 
L 465.926584 231.466146 
L 469.401437 231.851335 
L 473.284418 232.51041 
L 477.723098 233.49543 
L 482.978035 234.897388 
L 489.588787 236.902884 
L 499.34005 240.117695 
L 523.352737 248.099398 
L 534.510542 251.527441 
L 545.154153 254.56522 
L 555.790846 257.36935 
L 566.662732 260.004581 
L 577.931216 262.505802 
L 589.723119 264.893796 
L 602.156037 267.182811 
L 615.342954 269.382392 
L 629.401466 271.499579 
L 636.471074 272.484815 
L 636.471074 272.484815 
" style="fill:none;stroke:#ff7f0e;stroke-linecap:square;stroke-width:1.5;"/>
   </g>
   <g id="line2d_39">
    <path clip-path="url(#pb198bbeb92)" d="M 405.892562 307.8 
L 412.646274 266.389292 
L 416.264087 245.61256 
L 419.307754 229.388705 
L 422.037831 216.008534 
L 424.558079 204.739578 
L 426.923838 195.153706 
L 429.169696 186.958017 
L 431.318709 179.936581 
L 433.384713 173.927714 
L 435.379237 168.793872 
L 437.311504 164.419256 
L 439.190738 160.702423 
L 441.02155 157.563253 
L 442.810857 154.927289 
L 444.563271 152.733166 
L 446.288016 150.922826 
L 447.994314 149.448552 
L 449.691388 148.2716 
L 451.393075 147.35883 
L 453.115514 146.68555 
L 454.874845 146.23601 
L 456.691822 146.001612 
L 458.591808 145.982261 
L 460.600167 146.186615 
L 462.74918 146.63208 
L 465.075741 147.345479 
L 467.62827 148.365711 
L 470.469026 149.746577 
L 473.685628 151.564273 
L 477.423343 153.940407 
L 481.942727 157.088185 
L 487.880184 161.512354 
L 499.137139 170.242532 
L 510.092034 178.615686 
L 518.176197 184.513955 
L 525.633181 189.681768 
L 532.86189 194.422327 
L 540.032953 198.859961 
L 547.243215 203.060714 
L 554.56185 207.067203 
L 562.039586 210.906912 
L 569.717928 214.599144 
L 577.638379 218.16036 
L 585.837833 221.602352 
L 594.355488 224.935669 
L 603.225932 228.167063 
L 612.490669 231.304073 
L 622.188899 234.351625 
L 632.36443 237.314517 
L 636.471074 238.447668 
L 636.471074 238.447668 
" style="fill:none;stroke:#2ca02c;stroke-linecap:square;stroke-width:1.5;"/>
   </g>
   <g id="line2d_40">
    <path clip-path="url(#pb198bbeb92)" d="M 405.892562 307.8 
L 412.090574 240.825505 
L 415.410938 207.398821 
L 418.203272 181.463602 
L 420.70738 160.221962 
L 423.015494 142.488213 
L 425.180647 127.528548 
L 427.230511 114.874773 
L 429.185836 104.156384 
L 431.060458 95.085806 
L 432.861294 87.440358 
L 434.595262 81.020851 
L 436.266973 75.659438 
L 437.881039 71.208091 
L 439.439765 67.542837 
L 440.945458 64.554185 
L 442.400423 62.146239 
L 443.809272 60.232758 
L 445.176616 58.741062 
L 446.509373 57.608521 
L 447.816766 56.7833 
L 449.114936 56.223112 
L 450.420024 55.90046 
L 451.752781 55.800197 
L 453.136266 55.920819 
L 454.595842 56.274254 
L 456.161486 56.886784 
L 457.860867 57.79622 
L 459.728571 59.054815 
L 461.806105 60.731009 
L 464.1465 62.914207 
L 466.825849 65.728117 
L 469.96636 69.361058 
L 473.798613 74.150262 
L 478.885226 80.888007 
L 489.436604 95.342468 
L 497.917367 106.752593 
L 504.505061 115.246075 
L 510.564724 122.700378 
L 516.393807 129.521623 
L 522.119129 135.881414 
L 527.81217 141.874774 
L 533.523656 147.565914 
L 539.285871 152.99461 
L 545.128789 158.194409 
L 551.073163 163.187279 
L 557.14205 167.994626 
L 563.356203 172.633419 
L 569.734068 177.11681 
L 576.296398 181.457693 
L 583.059334 185.664227 
L 590.045932 189.747388 
L 597.274641 193.713756 
L 604.768518 197.571104 
L 612.548314 201.324591 
L 620.639395 204.980346 
L 629.067124 208.54309 
L 636.471074 211.484269 
L 636.471074 211.484269 
" style="fill:none;stroke:#d62728;stroke-linecap:square;stroke-width:1.5;"/>
   </g>
   <g id="patch_9">
    <path d="M 394.363636 320.4 
L 394.363636 43.2 
" style="fill:none;stroke:#000000;stroke-linecap:square;stroke-linejoin:miter;stroke-width:0.8;"/>
   </g>
   <g id="patch_10">
    <path d="M 648 320.4 
L 648 43.2 
" style="fill:none;stroke:#000000;stroke-linecap:square;stroke-linejoin:miter;stroke-width:0.8;"/>
   </g>
   <g id="patch_11">
    <path d="M 394.363636 320.4 
L 648 320.4 
" style="fill:none;stroke:#000000;stroke-linecap:square;stroke-linejoin:miter;stroke-width:0.8;"/>
   </g>
   <g id="patch_12">
    <path d="M 394.363636 43.2 
L 648 43.2 
" style="fill:none;stroke:#000000;stroke-linecap:square;stroke-linejoin:miter;stroke-width:0.8;"/>
   </g>
   <g id="text_34">
    <!-- Conductance vs $\Gamma$  -->
    <g transform="translate(466.041818 37.2)scale(0.12 -0.12)">
     <defs>
      <path d="M 1959 3097 
Q 1497 3097 1228 2736 
Q 959 2375 959 1747 
Q 959 1119 1226 758 
Q 1494 397 1959 397 
Q 2419 397 2687 759 
Q 2956 1122 2956 1747 
Q 2956 2369 2687 2733 
Q 2419 3097 1959 3097 
z
M 1959 3584 
Q 2709 3584 3137 3096 
Q 3566 2609 3566 1747 
Q 3566 888 3137 398 
Q 2709 -91 1959 -91 
Q 1206 -91 779 398 
Q 353 888 353 1747 
Q 353 2609 779 3096 
Q 1206 3584 1959 3584 
z
" id="DejaVuSans-6f" transform="scale(0.015625)"/>
      <path d="M 2906 2969 
L 2906 4863 
L 3481 4863 
L 3481 0 
L 2906 0 
L 2906 525 
Q 2725 213 2448 61 
Q 2172 -91 1784 -91 
Q 1150 -91 751 415 
Q 353 922 353 1747 
Q 353 2572 751 3078 
Q 1150 3584 1784 3584 
Q 2172 3584 2448 3432 
Q 2725 3281 2906 2969 
z
M 947 1747 
Q 947 1113 1208 752 
Q 1469 391 1925 391 
Q 2381 391 2643 752 
Q 2906 1113 2906 1747 
Q 2906 2381 2643 2742 
Q 2381 3103 1925 3103 
Q 1469 3103 1208 2742 
Q 947 2381 947 1747 
z
" id="DejaVuSans-64" transform="scale(0.015625)"/>
      <path d="M 544 1381 
L 544 3500 
L 1119 3500 
L 1119 1403 
Q 1119 906 1312 657 
Q 1506 409 1894 409 
Q 2359 409 2629 706 
Q 2900 1003 2900 1516 
L 2900 3500 
L 3475 3500 
L 3475 0 
L 2900 0 
L 2900 538 
Q 2691 219 2414 64 
Q 2138 -91 1772 -91 
Q 1169 -91 856 284 
Q 544 659 544 1381 
z
M 1991 3584 
L 1991 3584 
z
" id="DejaVuSans-75" transform="scale(0.015625)"/>
     </defs>
     <use transform="translate(0 0.015625)" xlink:href="#DejaVuSans-43"/>
     <use transform="translate(69.824219 0.015625)" xlink:href="#DejaVuSans-6f"/>
     <use transform="translate(131.005859 0.015625)" xlink:href="#DejaVuSans-6e"/>
     <use transform="translate(194.384766 0.015625)" xlink:href="#DejaVuSans-64"/>
     <use transform="translate(257.861328 0.015625)" xlink:href="#DejaVuSans-75"/>
     <use transform="translate(321.240234 0.015625)" xlink:href="#DejaVuSans-63"/>
     <use transform="translate(376.220703 0.015625)" xlink:href="#DejaVuSans-74"/>
     <use transform="translate(415.429688 0.015625)" xlink:href="#DejaVuSans-61"/>
     <use transform="translate(476.708984 0.015625)" xlink:href="#DejaVuSans-6e"/>
     <use transform="translate(540.087891 0.015625)" xlink:href="#DejaVuSans-63"/>
     <use transform="translate(595.068359 0.015625)" xlink:href="#DejaVuSans-65"/>
     <use transform="translate(656.591797 0.015625)" xlink:href="#DejaVuSans-20"/>
     <use transform="translate(688.378906 0.015625)" xlink:href="#DejaVuSans-76"/>
     <use transform="translate(747.558594 0.015625)" xlink:href="#DejaVuSans-73"/>
     <use transform="translate(799.658203 0.015625)" xlink:href="#DejaVuSans-20"/>
     <use transform="translate(831.445312 0.015625)" xlink:href="#DejaVuSans-393"/>
     <use transform="translate(887.158203 0.015625)" xlink:href="#DejaVuSans-20"/>
    </g>
   </g>
   <g id="legend_2">
    <g id="patch_13">
     <path d="M 559.51875 109.9125 
L 641 109.9125 
Q 643 109.9125 643 107.9125 
L 643 50.2 
Q 643 48.2 641 48.2 
L 559.51875 48.2 
Q 557.51875 48.2 557.51875 50.2 
L 557.51875 107.9125 
Q 557.51875 109.9125 559.51875 109.9125 
z
" style="fill:#ffffff;opacity:0.8;stroke:#cccccc;stroke-linejoin:miter;"/>
    </g>
    <g id="line2d_41">
     <path d="M 561.51875 56.298437 
L 581.51875 56.298437 
" style="fill:none;stroke:#1f77b4;stroke-linecap:square;stroke-width:1.5;"/>
    </g>
    <g id="line2d_42"/>
    <g id="text_35">
     <!-- N=1 -->
     <g transform="translate(589.51875 59.798437)scale(0.1 -0.1)">
      <use xlink:href="#DejaVuSans-4e"/>
      <use x="74.804688" xlink:href="#DejaVuSans-3d"/>
      <use x="158.59375" xlink:href="#DejaVuSans-31"/>
     </g>
    </g>
    <g id="line2d_43">
     <path d="M 561.51875 70.976562 
L 581.51875 70.976562 
" style="fill:none;stroke:#ff7f0e;stroke-linecap:square;stroke-width:1.5;"/>
    </g>
    <g id="line2d_44"/>
    <g id="text_36">
     <!-- N=2 -->
     <g transform="translate(589.51875 74.476562)scale(0.1 -0.1)">
      <use xlink:href="#DejaVuSans-4e"/>
      <use x="74.804688" xlink:href="#DejaVuSans-3d"/>
      <use x="158.59375" xlink:href="#DejaVuSans-32"/>
     </g>
    </g>
    <g id="line2d_45">
     <path d="M 561.51875 85.654687 
L 581.51875 85.654687 
" style="fill:none;stroke:#2ca02c;stroke-linecap:square;stroke-width:1.5;"/>
    </g>
    <g id="line2d_46"/>
    <g id="text_37">
     <!-- N=5 -->
     <g transform="translate(589.51875 89.154687)scale(0.1 -0.1)">
      <use xlink:href="#DejaVuSans-4e"/>
      <use x="74.804688" xlink:href="#DejaVuSans-3d"/>
      <use x="158.59375" xlink:href="#DejaVuSans-35"/>
     </g>
    </g>
    <g id="line2d_47">
     <path d="M 561.51875 100.332812 
L 581.51875 100.332812 
" style="fill:none;stroke:#d62728;stroke-linecap:square;stroke-width:1.5;"/>
    </g>
    <g id="line2d_48"/>
    <g id="text_38">
     <!-- N=1e+01 -->
     <g transform="translate(589.51875 103.832812)scale(0.1 -0.1)">
      <use xlink:href="#DejaVuSans-4e"/>
      <use x="74.804688" xlink:href="#DejaVuSans-3d"/>
      <use x="158.59375" xlink:href="#DejaVuSans-31"/>
      <use x="222.216797" xlink:href="#DejaVuSans-65"/>
      <use x="283.740234" xlink:href="#DejaVuSans-2b"/>
      <use x="367.529297" xlink:href="#DejaVuSans-30"/>
      <use x="431.152344" xlink:href="#DejaVuSans-31"/>
     </g>
    </g>
   </g>
  </g>
  <g id="text_39">
   <g id="patch_14">
    <path d="M 159.42 24.72 
L 560.58 24.72 
L 560.58 4.08 
L 159.42 4.08 
z
" style="fill:#f0ffff;stroke:#000000;stroke-linejoin:miter;"/>
   </g>
   <!--         $ \epsilon_0 = 15.0 \mu eV $        $ \omega_o  = 268.0 MHz $        $ T          = 50.0 mK $        $ n_g        = 1 $ -->
   <g transform="translate(163.38 17.04)scale(0.12 -0.12)">
    <defs>
     <path d="M 1263 1888 
Q 925 1963 778 2166 
Q 669 2309 669 2503 
Q 669 3034 1175 3344 
Q 1575 3588 2188 3588 
Q 2425 3588 2684 3550 
Q 2944 3513 3234 3438 
L 3134 2916 
Q 2847 3006 2606 3047 
Q 2359 3088 2138 3088 
Q 1766 3088 1522 2944 
Q 1228 2772 1228 2522 
Q 1228 2356 1381 2241 
Q 1563 2103 1925 2103 
L 2409 2103 
L 2319 1628 
L 1856 1628 
Q 1425 1628 1172 1469 
Q 828 1253 828 916 
Q 828 703 1013 563 
Q 1244 388 1716 388 
Q 2006 388 2284 444 
Q 2563 503 2806 619 
L 2700 84 
Q 2403 -3 2131 -47 
Q 1859 -91 1609 -91 
Q 866 -91 516 194 
Q 250 413 250 781 
Q 250 1278 600 1584 
Q 859 1813 1263 1888 
z
" id="DejaVuSans-Oblique-3b5" transform="scale(0.015625)"/>
     <path d="M 3078 2063 
Q 3088 2113 3092 2166 
Q 3097 2219 3097 2272 
Q 3097 2653 2873 2875 
Q 2650 3097 2266 3097 
Q 1838 3097 1509 2826 
Q 1181 2556 1013 2059 
L 3078 2063 
z
M 3578 1613 
L 903 1613 
Q 884 1494 878 1425 
Q 872 1356 872 1306 
Q 872 872 1139 634 
Q 1406 397 1894 397 
Q 2269 397 2603 481 
Q 2938 566 3225 728 
L 3116 159 
Q 2806 34 2476 -28 
Q 2147 -91 1806 -91 
Q 1078 -91 686 257 
Q 294 606 294 1247 
Q 294 1794 489 2264 
Q 684 2734 1063 3103 
Q 1306 3334 1642 3459 
Q 1978 3584 2356 3584 
Q 2950 3584 3301 3228 
Q 3653 2872 3653 2272 
Q 3653 2128 3634 1964 
Q 3616 1800 3578 1613 
z
" id="DejaVuSans-Oblique-65" transform="scale(0.015625)"/>
     <path d="M 1319 0 
L 500 4666 
L 1119 4666 
L 1797 653 
L 4063 4666 
L 4750 4666 
L 2053 0 
L 1319 0 
z
" id="DejaVuSans-Oblique-56" transform="scale(0.015625)"/>
     <path d="M 1369 -91 
Q 72 -91 434 1766 
Q 575 2500 1256 3500 
L 1875 3500 
Q 1231 2500 1088 1750 
Q 819 397 1519 397 
Q 2166 397 2478 2078 
L 3009 2078 
Q 2669 388 3316 397 
Q 4013 403 4275 1750 
Q 4419 2500 4169 3500 
L 4788 3500 
Q 5075 2500 4934 1766 
Q 4578 -94 3278 -91 
Q 2428 -88 2503 844 
Q 2194 -91 1369 -91 
z
" id="DejaVuSans-Oblique-3c9" transform="scale(0.015625)"/>
     <path d="M 1625 -91 
Q 1009 -91 651 289 
Q 294 669 294 1325 
Q 294 1706 417 2101 
Q 541 2497 738 2766 
Q 1047 3184 1428 3384 
Q 1809 3584 2291 3584 
Q 2888 3584 3255 3212 
Q 3622 2841 3622 2241 
Q 3622 1825 3500 1412 
Q 3378 1000 3181 728 
Q 2875 309 2494 109 
Q 2113 -91 1625 -91 
z
M 891 1344 
Q 891 869 1089 633 
Q 1288 397 1691 397 
Q 2269 397 2648 901 
Q 3028 1406 3028 2181 
Q 3028 2634 2825 2865 
Q 2622 3097 2228 3097 
Q 1903 3097 1650 2945 
Q 1397 2794 1197 2484 
Q 1050 2253 970 1956 
Q 891 1659 891 1344 
z
" id="DejaVuSans-Oblique-6f" transform="scale(0.015625)"/>
     <path d="M 1081 4666 
L 2028 4666 
L 2572 1522 
L 4378 4666 
L 5350 4666 
L 4441 0 
L 3828 0 
L 4622 4091 
L 2791 897 
L 2175 897 
L 1581 4103 
L 788 0 
L 172 0 
L 1081 4666 
z
" id="DejaVuSans-Oblique-4d" transform="scale(0.015625)"/>
     <path d="M 378 4666 
L 4325 4666 
L 4225 4134 
L 2559 4134 
L 1759 0 
L 1125 0 
L 1925 4134 
L 275 4134 
L 378 4666 
z
" id="DejaVuSans-Oblique-54" transform="scale(0.015625)"/>
     <path d="M 5747 2113 
L 5338 0 
L 4763 0 
L 5166 2094 
Q 5191 2228 5203 2325 
Q 5216 2422 5216 2491 
Q 5216 2772 5059 2928 
Q 4903 3084 4622 3084 
Q 4203 3084 3875 2770 
Q 3547 2456 3450 1953 
L 3066 0 
L 2491 0 
L 2900 2094 
Q 2925 2209 2937 2307 
Q 2950 2406 2950 2484 
Q 2950 2769 2794 2926 
Q 2638 3084 2363 3084 
Q 1938 3084 1609 2770 
Q 1281 2456 1184 1953 
L 800 0 
L 225 0 
L 909 3500 
L 1484 3500 
L 1375 2956 
Q 1609 3263 1923 3423 
Q 2238 3584 2597 3584 
Q 2978 3584 3223 3384 
Q 3469 3184 3519 2828 
Q 3781 3197 4126 3390 
Q 4472 3584 4856 3584 
Q 5306 3584 5551 3325 
Q 5797 3066 5797 2591 
Q 5797 2488 5784 2364 
Q 5772 2241 5747 2113 
z
" id="DejaVuSans-Oblique-6d" transform="scale(0.015625)"/>
     <path d="M 1081 4666 
L 1716 4666 
L 1331 2700 
L 3781 4666 
L 4622 4666 
L 1850 2438 
L 3878 0 
L 3109 0 
L 1247 2272 
L 806 0 
L 172 0 
L 1081 4666 
z
" id="DejaVuSans-Oblique-4b" transform="scale(0.015625)"/>
     <path d="M 3566 2113 
L 3156 0 
L 2578 0 
L 2988 2091 
Q 3016 2238 3031 2350 
Q 3047 2463 3047 2528 
Q 3047 2791 2881 2937 
Q 2716 3084 2419 3084 
Q 1956 3084 1622 2776 
Q 1288 2469 1184 1941 
L 800 0 
L 225 0 
L 903 3500 
L 1478 3500 
L 1363 2950 
Q 1603 3253 1940 3418 
Q 2278 3584 2650 3584 
Q 3113 3584 3367 3334 
Q 3622 3084 3622 2631 
Q 3622 2519 3608 2391 
Q 3594 2263 3566 2113 
z
" id="DejaVuSans-Oblique-6e" transform="scale(0.015625)"/>
     <path d="M 3816 3500 
L 3219 434 
Q 3047 -456 2561 -893 
Q 2075 -1331 1253 -1331 
Q 950 -1331 690 -1286 
Q 431 -1241 206 -1147 
L 313 -588 
Q 525 -725 762 -790 
Q 1000 -856 1269 -856 
Q 1816 -856 2167 -557 
Q 2519 -259 2631 300 
L 2681 563 
Q 2441 288 2122 144 
Q 1803 0 1434 0 
Q 903 0 598 351 
Q 294 703 294 1319 
Q 294 1803 478 2267 
Q 663 2731 997 3091 
Q 1219 3328 1514 3456 
Q 1809 3584 2131 3584 
Q 2484 3584 2746 3420 
Q 3009 3256 3138 2956 
L 3238 3500 
L 3816 3500 
z
M 2950 2216 
Q 2950 2641 2750 2872 
Q 2550 3103 2181 3103 
Q 1953 3103 1747 3012 
Q 1541 2922 1394 2759 
Q 1156 2491 1023 2127 
Q 891 1763 891 1375 
Q 891 944 1092 712 
Q 1294 481 1672 481 
Q 2219 481 2584 976 
Q 2950 1472 2950 2216 
z
" id="DejaVuSans-Oblique-67" transform="scale(0.015625)"/>
    </defs>
    <use transform="translate(0 0.78125)" xlink:href="#DejaVuSans-20"/>
    <use transform="translate(31.787109 0.78125)" xlink:href="#DejaVuSans-20"/>
    <use transform="translate(63.574219 0.78125)" xlink:href="#DejaVuSans-20"/>
    <use transform="translate(95.361328 0.78125)" xlink:href="#DejaVuSans-20"/>
    <use transform="translate(127.148438 0.78125)" xlink:href="#DejaVuSans-20"/>
    <use transform="translate(158.935547 0.78125)" xlink:href="#DejaVuSans-20"/>
    <use transform="translate(190.722656 0.78125)" xlink:href="#DejaVuSans-20"/>
    <use transform="translate(222.509766 0.78125)" xlink:href="#DejaVuSans-20"/>
    <use transform="translate(254.296875 0.78125)" xlink:href="#DejaVuSans-Oblique-3b5"/>
    <use transform="translate(308.349609 -15.625)scale(0.7)" xlink:href="#DejaVuSans-30"/>
    <use transform="translate(375.102539 0.78125)" xlink:href="#DejaVuSans-3d"/>
    <use transform="translate(478.374023 0.78125)" xlink:href="#DejaVuSans-31"/>
    <use transform="translate(541.99707 0.78125)" xlink:href="#DejaVuSans-35"/>
    <use transform="translate(605.620117 0.78125)" xlink:href="#DejaVuSans-2e"/>
    <use transform="translate(637.407227 0.78125)" xlink:href="#DejaVuSans-30"/>
    <use transform="translate(701.030273 0.78125)" xlink:href="#DejaVuSans-Oblique-3bc"/>
    <use transform="translate(764.65332 0.78125)" xlink:href="#DejaVuSans-Oblique-65"/>
    <use transform="translate(826.176758 0.78125)" xlink:href="#DejaVuSans-Oblique-56"/>
    <use transform="translate(894.584961 0.78125)" xlink:href="#DejaVuSans-20"/>
    <use transform="translate(926.37207 0.78125)" xlink:href="#DejaVuSans-20"/>
    <use transform="translate(958.15918 0.78125)" xlink:href="#DejaVuSans-20"/>
    <use transform="translate(989.946289 0.78125)" xlink:href="#DejaVuSans-20"/>
    <use transform="translate(1021.733398 0.78125)" xlink:href="#DejaVuSans-20"/>
    <use transform="translate(1053.520508 0.78125)" xlink:href="#DejaVuSans-20"/>
    <use transform="translate(1085.307617 0.78125)" xlink:href="#DejaVuSans-20"/>
    <use transform="translate(1117.094727 0.78125)" xlink:href="#DejaVuSans-20"/>
    <use transform="translate(1148.881836 0.78125)" xlink:href="#DejaVuSans-Oblique-3c9"/>
    <use transform="translate(1232.62207 -15.625)scale(0.7)" xlink:href="#DejaVuSans-Oblique-6f"/>
    <use transform="translate(1297.666016 0.78125)" xlink:href="#DejaVuSans-3d"/>
    <use transform="translate(1400.9375 0.78125)" xlink:href="#DejaVuSans-32"/>
    <use transform="translate(1464.560547 0.78125)" xlink:href="#DejaVuSans-36"/>
    <use transform="translate(1528.183594 0.78125)" xlink:href="#DejaVuSans-38"/>
    <use transform="translate(1591.806641 0.78125)" xlink:href="#DejaVuSans-2e"/>
    <use transform="translate(1623.59375 0.78125)" xlink:href="#DejaVuSans-30"/>
    <use transform="translate(1687.216797 0.78125)" xlink:href="#DejaVuSans-Oblique-4d"/>
    <use transform="translate(1773.496094 0.78125)" xlink:href="#DejaVuSans-Oblique-48"/>
    <use transform="translate(1848.691406 0.78125)" xlink:href="#DejaVuSans-Oblique-7a"/>
    <use transform="translate(1901.181641 0.78125)" xlink:href="#DejaVuSans-20"/>
    <use transform="translate(1932.96875 0.78125)" xlink:href="#DejaVuSans-20"/>
    <use transform="translate(1964.755859 0.78125)" xlink:href="#DejaVuSans-20"/>
    <use transform="translate(1996.542969 0.78125)" xlink:href="#DejaVuSans-20"/>
    <use transform="translate(2028.330078 0.78125)" xlink:href="#DejaVuSans-20"/>
    <use transform="translate(2060.117188 0.78125)" xlink:href="#DejaVuSans-20"/>
    <use transform="translate(2091.904297 0.78125)" xlink:href="#DejaVuSans-20"/>
    <use transform="translate(2123.691406 0.78125)" xlink:href="#DejaVuSans-20"/>
    <use transform="translate(2155.478516 0.78125)" xlink:href="#DejaVuSans-Oblique-54"/>
    <use transform="translate(2236.044922 0.78125)" xlink:href="#DejaVuSans-3d"/>
    <use transform="translate(2339.316406 0.78125)" xlink:href="#DejaVuSans-35"/>
    <use transform="translate(2402.939453 0.78125)" xlink:href="#DejaVuSans-30"/>
    <use transform="translate(2466.5625 0.78125)" xlink:href="#DejaVuSans-2e"/>
    <use transform="translate(2498.349609 0.78125)" xlink:href="#DejaVuSans-30"/>
    <use transform="translate(2561.972656 0.78125)" xlink:href="#DejaVuSans-Oblique-6d"/>
    <use transform="translate(2659.384766 0.78125)" xlink:href="#DejaVuSans-Oblique-4b"/>
    <use transform="translate(2724.960938 0.78125)" xlink:href="#DejaVuSans-20"/>
    <use transform="translate(2756.748047 0.78125)" xlink:href="#DejaVuSans-20"/>
    <use transform="translate(2788.535156 0.78125)" xlink:href="#DejaVuSans-20"/>
    <use transform="translate(2820.322266 0.78125)" xlink:href="#DejaVuSans-20"/>
    <use transform="translate(2852.109375 0.78125)" xlink:href="#DejaVuSans-20"/>
    <use transform="translate(2883.896484 0.78125)" xlink:href="#DejaVuSans-20"/>
    <use transform="translate(2915.683594 0.78125)" xlink:href="#DejaVuSans-20"/>
    <use transform="translate(2947.470703 0.78125)" xlink:href="#DejaVuSans-20"/>
    <use transform="translate(2979.257812 0.78125)" xlink:href="#DejaVuSans-Oblique-6e"/>
    <use transform="translate(3042.636719 -15.625)scale(0.7)" xlink:href="#DejaVuSans-Oblique-67"/>
    <use transform="translate(3109.287109 0.78125)" xlink:href="#DejaVuSans-3d"/>
    <use transform="translate(3212.558594 0.78125)" xlink:href="#DejaVuSans-31"/>
   </g>
  </g>
 </g>
 <defs>
  <clipPath id="pc9b8e77511">
   <rect height="277.2" width="253.636364" x="90" y="43.2"/>
  </clipPath>
  <clipPath id="pb198bbeb92">
   <rect height="277.2" width="253.636364" x="394.363636" y="43.2"/>
  </clipPath>
 </defs>
</svg>
