<?xml version="1.0" encoding="utf-8" standalone="no"?>
<!DOCTYPE svg PUBLIC "-//W3C//DTD SVG 1.1//EN"
  "http://www.w3.org/Graphics/SVG/1.1/DTD/svg11.dtd">
<svg xmlns:xlink="http://www.w3.org/1999/xlink" width="504pt" height="360pt" viewBox="0 0 504 360" xmlns="http://www.w3.org/2000/svg" version="1.1">
 <metadata>
  <rdf:RDF xmlns:dc="http://purl.org/dc/elements/1.1/" xmlns:cc="http://creativecommons.org/ns#" xmlns:rdf="http://www.w3.org/1999/02/22-rdf-syntax-ns#">
   <cc:Work>
    <dc:type rdf:resource="http://purl.org/dc/dcmitype/StillImage"/>
    <dc:date>2022-02-24T01:14:04.861592</dc:date>
    <dc:format>image/svg+xml</dc:format>
    <dc:creator>
     <cc:Agent>
      <dc:title>Matplotlib v3.5.1, https://matplotlib.org/</dc:title>
     </cc:Agent>
    </dc:creator>
   </cc:Work>
  </rdf:RDF>
 </metadata>
 <defs>
  <style type="text/css">*{stroke-linejoin: round; stroke-linecap: butt}</style>
 </defs>
 <g id="figure_1">
  <g id="patch_1">
   <path d="M 0 360 
L 504 360 
L 504 0 
L 0 0 
L 0 360 
z
" style="fill: none"/>
  </g>
  <g id="axes_1">
   <g id="patch_2">
    <path d="M 63 315 
L 453.6 315 
L 453.6 43.2 
L 63 43.2 
z
" style="fill: #ffffff"/>
   </g>
   <g id="PathCollection_1">
    <defs>
     <path id="m69e64eb64d" d="M 0 1.581139 
C 0.419323 1.581139 0.821528 1.41454 1.118034 1.118034 
C 1.41454 0.821528 1.581139 0.419323 1.581139 0 
C 1.581139 -0.419323 1.41454 -0.821528 1.118034 -1.118034 
C 0.821528 -1.41454 0.419323 -1.581139 0 -1.581139 
C -0.419323 -1.581139 -0.821528 -1.41454 -1.118034 -1.118034 
C -1.41454 -0.821528 -1.581139 -0.419323 -1.581139 0 
C -1.581139 0.419323 -1.41454 0.821528 -1.118034 1.118034 
C -0.821528 1.41454 -0.419323 1.581139 0 1.581139 
z
" style="stroke: #ff0000"/>
    </defs>
    <g clip-path="url(#pd7289ac0ee)">
     <use xlink:href="#m69e64eb64d" x="80.754545" y="267.785207" style="fill: #ff0000; stroke: #ff0000"/>
     <use xlink:href="#m69e64eb64d" x="80.754545" y="165.336587" style="fill: #ff0000; stroke: #ff0000"/>
     <use xlink:href="#m69e64eb64d" x="143.282951" y="302.645455" style="fill: #ff0000; stroke: #ff0000"/>
     <use xlink:href="#m69e64eb64d" x="205.811356" y="240.459256" style="fill: #ff0000; stroke: #ff0000"/>
     <use xlink:href="#m69e64eb64d" x="236.757591" y="233.720169" style="fill: #ff0000; stroke: #ff0000"/>
     <use xlink:href="#m69e64eb64d" x="236.757591" y="228.107438" style="fill: #ff0000; stroke: #ff0000"/>
     <use xlink:href="#m69e64eb64d" x="250.175966" y="226.026204" style="fill: #ff0000; stroke: #ff0000"/>
     <use xlink:href="#m69e64eb64d" x="250.175966" y="168.605023" style="fill: #ff0000; stroke: #ff0000"/>
     <use xlink:href="#m69e64eb64d" x="273.948162" y="134.807673" style="fill: #ff0000; stroke: #ff0000"/>
     <use xlink:href="#m69e64eb64d" x="435.845455" y="55.554545" style="fill: #ff0000; stroke: #ff0000"/>
     <use xlink:href="#m69e64eb64d" x="401.43359" y="55.565876" style="fill: #ff0000; stroke: #ff0000"/>
    </g>
   </g>
   <g id="matplotlib.axis_1">
    <g id="xtick_1">
     <g id="line2d_1">
      <defs>
       <path id="m0454209336" d="M 0 0 
L 0 3.5 
" style="stroke: #000000; stroke-width: 0.8"/>
      </defs>
      <g>
       <use xlink:href="#m0454209336" x="80.754545" y="315" style="stroke: #000000; stroke-width: 0.8"/>
      </g>
     </g>
     <g id="text_1">
      <!-- −2.0 -->
      <g transform="translate(68.613139 329.598437)scale(0.1 -0.1)">
       <defs>
        <path id="DejaVuSans-2212" d="M 678 2272 
L 4684 2272 
L 4684 1741 
L 678 1741 
L 678 2272 
z
" transform="scale(0.015625)"/>
        <path id="DejaVuSans-32" d="M 1228 531 
L 3431 531 
L 3431 0 
L 469 0 
L 469 531 
Q 828 903 1448 1529 
Q 2069 2156 2228 2338 
Q 2531 2678 2651 2914 
Q 2772 3150 2772 3378 
Q 2772 3750 2511 3984 
Q 2250 4219 1831 4219 
Q 1534 4219 1204 4116 
Q 875 4013 500 3803 
L 500 4441 
Q 881 4594 1212 4672 
Q 1544 4750 1819 4750 
Q 2544 4750 2975 4387 
Q 3406 4025 3406 3419 
Q 3406 3131 3298 2873 
Q 3191 2616 2906 2266 
Q 2828 2175 2409 1742 
Q 1991 1309 1228 531 
z
" transform="scale(0.015625)"/>
        <path id="DejaVuSans-2e" d="M 684 794 
L 1344 794 
L 1344 0 
L 684 0 
L 684 794 
z
" transform="scale(0.015625)"/>
        <path id="DejaVuSans-30" d="M 2034 4250 
Q 1547 4250 1301 3770 
Q 1056 3291 1056 2328 
Q 1056 1369 1301 889 
Q 1547 409 2034 409 
Q 2525 409 2770 889 
Q 3016 1369 3016 2328 
Q 3016 3291 2770 3770 
Q 2525 4250 2034 4250 
z
M 2034 4750 
Q 2819 4750 3233 4129 
Q 3647 3509 3647 2328 
Q 3647 1150 3233 529 
Q 2819 -91 2034 -91 
Q 1250 -91 836 529 
Q 422 1150 422 2328 
Q 422 3509 836 4129 
Q 1250 4750 2034 4750 
z
" transform="scale(0.015625)"/>
       </defs>
       <use xlink:href="#DejaVuSans-2212"/>
       <use xlink:href="#DejaVuSans-32" x="83.789062"/>
       <use xlink:href="#DejaVuSans-2e" x="147.412109"/>
       <use xlink:href="#DejaVuSans-30" x="179.199219"/>
      </g>
     </g>
    </g>
    <g id="xtick_2">
     <g id="line2d_2">
      <g>
       <use xlink:href="#m0454209336" x="151.772727" y="315" style="stroke: #000000; stroke-width: 0.8"/>
      </g>
     </g>
     <g id="text_2">
      <!-- −1.8 -->
      <g transform="translate(139.631321 329.598437)scale(0.1 -0.1)">
       <defs>
        <path id="DejaVuSans-31" d="M 794 531 
L 1825 531 
L 1825 4091 
L 703 3866 
L 703 4441 
L 1819 4666 
L 2450 4666 
L 2450 531 
L 3481 531 
L 3481 0 
L 794 0 
L 794 531 
z
" transform="scale(0.015625)"/>
        <path id="DejaVuSans-38" d="M 2034 2216 
Q 1584 2216 1326 1975 
Q 1069 1734 1069 1313 
Q 1069 891 1326 650 
Q 1584 409 2034 409 
Q 2484 409 2743 651 
Q 3003 894 3003 1313 
Q 3003 1734 2745 1975 
Q 2488 2216 2034 2216 
z
M 1403 2484 
Q 997 2584 770 2862 
Q 544 3141 544 3541 
Q 544 4100 942 4425 
Q 1341 4750 2034 4750 
Q 2731 4750 3128 4425 
Q 3525 4100 3525 3541 
Q 3525 3141 3298 2862 
Q 3072 2584 2669 2484 
Q 3125 2378 3379 2068 
Q 3634 1759 3634 1313 
Q 3634 634 3220 271 
Q 2806 -91 2034 -91 
Q 1263 -91 848 271 
Q 434 634 434 1313 
Q 434 1759 690 2068 
Q 947 2378 1403 2484 
z
M 1172 3481 
Q 1172 3119 1398 2916 
Q 1625 2713 2034 2713 
Q 2441 2713 2670 2916 
Q 2900 3119 2900 3481 
Q 2900 3844 2670 4047 
Q 2441 4250 2034 4250 
Q 1625 4250 1398 4047 
Q 1172 3844 1172 3481 
z
" transform="scale(0.015625)"/>
       </defs>
       <use xlink:href="#DejaVuSans-2212"/>
       <use xlink:href="#DejaVuSans-31" x="83.789062"/>
       <use xlink:href="#DejaVuSans-2e" x="147.412109"/>
       <use xlink:href="#DejaVuSans-38" x="179.199219"/>
      </g>
     </g>
    </g>
    <g id="xtick_3">
     <g id="line2d_3">
      <g>
       <use xlink:href="#m0454209336" x="222.790909" y="315" style="stroke: #000000; stroke-width: 0.8"/>
      </g>
     </g>
     <g id="text_3">
      <!-- −1.6 -->
      <g transform="translate(210.649503 329.598437)scale(0.1 -0.1)">
       <defs>
        <path id="DejaVuSans-36" d="M 2113 2584 
Q 1688 2584 1439 2293 
Q 1191 2003 1191 1497 
Q 1191 994 1439 701 
Q 1688 409 2113 409 
Q 2538 409 2786 701 
Q 3034 994 3034 1497 
Q 3034 2003 2786 2293 
Q 2538 2584 2113 2584 
z
M 3366 4563 
L 3366 3988 
Q 3128 4100 2886 4159 
Q 2644 4219 2406 4219 
Q 1781 4219 1451 3797 
Q 1122 3375 1075 2522 
Q 1259 2794 1537 2939 
Q 1816 3084 2150 3084 
Q 2853 3084 3261 2657 
Q 3669 2231 3669 1497 
Q 3669 778 3244 343 
Q 2819 -91 2113 -91 
Q 1303 -91 875 529 
Q 447 1150 447 2328 
Q 447 3434 972 4092 
Q 1497 4750 2381 4750 
Q 2619 4750 2861 4703 
Q 3103 4656 3366 4563 
z
" transform="scale(0.015625)"/>
       </defs>
       <use xlink:href="#DejaVuSans-2212"/>
       <use xlink:href="#DejaVuSans-31" x="83.789062"/>
       <use xlink:href="#DejaVuSans-2e" x="147.412109"/>
       <use xlink:href="#DejaVuSans-36" x="179.199219"/>
      </g>
     </g>
    </g>
    <g id="xtick_4">
     <g id="line2d_4">
      <g>
       <use xlink:href="#m0454209336" x="293.809091" y="315" style="stroke: #000000; stroke-width: 0.8"/>
      </g>
     </g>
     <g id="text_4">
      <!-- −1.4 -->
      <g transform="translate(281.667685 329.598437)scale(0.1 -0.1)">
       <defs>
        <path id="DejaVuSans-34" d="M 2419 4116 
L 825 1625 
L 2419 1625 
L 2419 4116 
z
M 2253 4666 
L 3047 4666 
L 3047 1625 
L 3713 1625 
L 3713 1100 
L 3047 1100 
L 3047 0 
L 2419 0 
L 2419 1100 
L 313 1100 
L 313 1709 
L 2253 4666 
z
" transform="scale(0.015625)"/>
       </defs>
       <use xlink:href="#DejaVuSans-2212"/>
       <use xlink:href="#DejaVuSans-31" x="83.789062"/>
       <use xlink:href="#DejaVuSans-2e" x="147.412109"/>
       <use xlink:href="#DejaVuSans-34" x="179.199219"/>
      </g>
     </g>
    </g>
    <g id="xtick_5">
     <g id="line2d_5">
      <g>
       <use xlink:href="#m0454209336" x="364.827273" y="315" style="stroke: #000000; stroke-width: 0.8"/>
      </g>
     </g>
     <g id="text_5">
      <!-- −1.2 -->
      <g transform="translate(352.685866 329.598437)scale(0.1 -0.1)">
       <use xlink:href="#DejaVuSans-2212"/>
       <use xlink:href="#DejaVuSans-31" x="83.789062"/>
       <use xlink:href="#DejaVuSans-2e" x="147.412109"/>
       <use xlink:href="#DejaVuSans-32" x="179.199219"/>
      </g>
     </g>
    </g>
    <g id="xtick_6">
     <g id="line2d_6">
      <g>
       <use xlink:href="#m0454209336" x="435.845455" y="315" style="stroke: #000000; stroke-width: 0.8"/>
      </g>
     </g>
     <g id="text_6">
      <!-- −1.0 -->
      <g transform="translate(423.704048 329.598437)scale(0.1 -0.1)">
       <use xlink:href="#DejaVuSans-2212"/>
       <use xlink:href="#DejaVuSans-31" x="83.789062"/>
       <use xlink:href="#DejaVuSans-2e" x="147.412109"/>
       <use xlink:href="#DejaVuSans-30" x="179.199219"/>
      </g>
     </g>
    </g>
    <g id="text_7">
     <!-- $\log_{10}(\Gamma_t / meV)$ -->
     <g transform="translate(214.62 345.558125)scale(0.13 -0.13)">
      <defs>
       <path id="DejaVuSans-6c" d="M 603 4863 
L 1178 4863 
L 1178 0 
L 603 0 
L 603 4863 
z
" transform="scale(0.015625)"/>
       <path id="DejaVuSans-6f" d="M 1959 3097 
Q 1497 3097 1228 2736 
Q 959 2375 959 1747 
Q 959 1119 1226 758 
Q 1494 397 1959 397 
Q 2419 397 2687 759 
Q 2956 1122 2956 1747 
Q 2956 2369 2687 2733 
Q 2419 3097 1959 3097 
z
M 1959 3584 
Q 2709 3584 3137 3096 
Q 3566 2609 3566 1747 
Q 3566 888 3137 398 
Q 2709 -91 1959 -91 
Q 1206 -91 779 398 
Q 353 888 353 1747 
Q 353 2609 779 3096 
Q 1206 3584 1959 3584 
z
" transform="scale(0.015625)"/>
       <path id="DejaVuSans-67" d="M 2906 1791 
Q 2906 2416 2648 2759 
Q 2391 3103 1925 3103 
Q 1463 3103 1205 2759 
Q 947 2416 947 1791 
Q 947 1169 1205 825 
Q 1463 481 1925 481 
Q 2391 481 2648 825 
Q 2906 1169 2906 1791 
z
M 3481 434 
Q 3481 -459 3084 -895 
Q 2688 -1331 1869 -1331 
Q 1566 -1331 1297 -1286 
Q 1028 -1241 775 -1147 
L 775 -588 
Q 1028 -725 1275 -790 
Q 1522 -856 1778 -856 
Q 2344 -856 2625 -561 
Q 2906 -266 2906 331 
L 2906 616 
Q 2728 306 2450 153 
Q 2172 0 1784 0 
Q 1141 0 747 490 
Q 353 981 353 1791 
Q 353 2603 747 3093 
Q 1141 3584 1784 3584 
Q 2172 3584 2450 3431 
Q 2728 3278 2906 2969 
L 2906 3500 
L 3481 3500 
L 3481 434 
z
" transform="scale(0.015625)"/>
       <path id="DejaVuSans-28" d="M 1984 4856 
Q 1566 4138 1362 3434 
Q 1159 2731 1159 2009 
Q 1159 1288 1364 580 
Q 1569 -128 1984 -844 
L 1484 -844 
Q 1016 -109 783 600 
Q 550 1309 550 2009 
Q 550 2706 781 3412 
Q 1013 4119 1484 4856 
L 1984 4856 
z
" transform="scale(0.015625)"/>
       <path id="DejaVuSans-393" d="M 628 0 
L 628 4666 
L 3531 4666 
L 3531 4134 
L 1259 4134 
L 1259 0 
L 628 0 
z
" transform="scale(0.015625)"/>
       <path id="DejaVuSans-Oblique-74" d="M 2706 3500 
L 2619 3053 
L 1472 3053 
L 1100 1153 
Q 1081 1047 1072 975 
Q 1063 903 1063 863 
Q 1063 663 1183 572 
Q 1303 481 1569 481 
L 2150 481 
L 2053 0 
L 1503 0 
Q 991 0 739 200 
Q 488 400 488 806 
Q 488 878 497 964 
Q 506 1050 525 1153 
L 897 3053 
L 409 3053 
L 500 3500 
L 978 3500 
L 1172 4494 
L 1747 4494 
L 1556 3500 
L 2706 3500 
z
" transform="scale(0.015625)"/>
       <path id="DejaVuSans-2f" d="M 1625 4666 
L 2156 4666 
L 531 -594 
L 0 -594 
L 1625 4666 
z
" transform="scale(0.015625)"/>
       <path id="DejaVuSans-Oblique-6d" d="M 5747 2113 
L 5338 0 
L 4763 0 
L 5166 2094 
Q 5191 2228 5203 2325 
Q 5216 2422 5216 2491 
Q 5216 2772 5059 2928 
Q 4903 3084 4622 3084 
Q 4203 3084 3875 2770 
Q 3547 2456 3450 1953 
L 3066 0 
L 2491 0 
L 2900 2094 
Q 2925 2209 2937 2307 
Q 2950 2406 2950 2484 
Q 2950 2769 2794 2926 
Q 2638 3084 2363 3084 
Q 1938 3084 1609 2770 
Q 1281 2456 1184 1953 
L 800 0 
L 225 0 
L 909 3500 
L 1484 3500 
L 1375 2956 
Q 1609 3263 1923 3423 
Q 2238 3584 2597 3584 
Q 2978 3584 3223 3384 
Q 3469 3184 3519 2828 
Q 3781 3197 4126 3390 
Q 4472 3584 4856 3584 
Q 5306 3584 5551 3325 
Q 5797 3066 5797 2591 
Q 5797 2488 5784 2364 
Q 5772 2241 5747 2113 
z
" transform="scale(0.015625)"/>
       <path id="DejaVuSans-Oblique-65" d="M 3078 2063 
Q 3088 2113 3092 2166 
Q 3097 2219 3097 2272 
Q 3097 2653 2873 2875 
Q 2650 3097 2266 3097 
Q 1838 3097 1509 2826 
Q 1181 2556 1013 2059 
L 3078 2063 
z
M 3578 1613 
L 903 1613 
Q 884 1494 878 1425 
Q 872 1356 872 1306 
Q 872 872 1139 634 
Q 1406 397 1894 397 
Q 2269 397 2603 481 
Q 2938 566 3225 728 
L 3116 159 
Q 2806 34 2476 -28 
Q 2147 -91 1806 -91 
Q 1078 -91 686 257 
Q 294 606 294 1247 
Q 294 1794 489 2264 
Q 684 2734 1063 3103 
Q 1306 3334 1642 3459 
Q 1978 3584 2356 3584 
Q 2950 3584 3301 3228 
Q 3653 2872 3653 2272 
Q 3653 2128 3634 1964 
Q 3616 1800 3578 1613 
z
" transform="scale(0.015625)"/>
       <path id="DejaVuSans-Oblique-56" d="M 1319 0 
L 500 4666 
L 1119 4666 
L 1797 653 
L 4063 4666 
L 4750 4666 
L 2053 0 
L 1319 0 
z
" transform="scale(0.015625)"/>
       <path id="DejaVuSans-29" d="M 513 4856 
L 1013 4856 
Q 1481 4119 1714 3412 
Q 1947 2706 1947 2009 
Q 1947 1309 1714 600 
Q 1481 -109 1013 -844 
L 513 -844 
Q 928 -128 1133 580 
Q 1338 1288 1338 2009 
Q 1338 2731 1133 3434 
Q 928 4138 513 4856 
z
" transform="scale(0.015625)"/>
      </defs>
      <use xlink:href="#DejaVuSans-6c" transform="translate(0 0.015625)"/>
      <use xlink:href="#DejaVuSans-6f" transform="translate(27.783203 0.015625)"/>
      <use xlink:href="#DejaVuSans-67" transform="translate(88.964844 0.015625)"/>
      <use xlink:href="#DejaVuSans-31" transform="translate(153.398438 -16.390625)scale(0.7)"/>
      <use xlink:href="#DejaVuSans-30" transform="translate(197.93457 -16.390625)scale(0.7)"/>
      <use xlink:href="#DejaVuSans-28" transform="translate(245.205078 0.015625)"/>
      <use xlink:href="#DejaVuSans-393" transform="translate(284.21875 0.015625)"/>
      <use xlink:href="#DejaVuSans-Oblique-74" transform="translate(340.888672 -16.390625)scale(0.7)"/>
      <use xlink:href="#DejaVuSans-2f" transform="translate(371.069336 0.015625)"/>
      <use xlink:href="#DejaVuSans-Oblique-6d" transform="translate(404.760742 0.015625)"/>
      <use xlink:href="#DejaVuSans-Oblique-65" transform="translate(502.172852 0.015625)"/>
      <use xlink:href="#DejaVuSans-Oblique-56" transform="translate(563.696289 0.015625)"/>
      <use xlink:href="#DejaVuSans-29" transform="translate(632.104492 0.015625)"/>
     </g>
    </g>
   </g>
   <g id="matplotlib.axis_2">
    <g id="ytick_1">
     <g id="line2d_7">
      <defs>
       <path id="m031599073b" d="M 0 0 
L -3.5 0 
" style="stroke: #000000; stroke-width: 0.8"/>
      </defs>
      <g>
       <use xlink:href="#m031599073b" x="63" y="285.119322" style="stroke: #000000; stroke-width: 0.8"/>
      </g>
     </g>
     <g id="text_8">
      <!-- 6.0 -->
      <g transform="translate(40.096875 288.918541)scale(0.1 -0.1)">
       <use xlink:href="#DejaVuSans-36"/>
       <use xlink:href="#DejaVuSans-2e" x="63.623047"/>
       <use xlink:href="#DejaVuSans-30" x="95.410156"/>
      </g>
     </g>
    </g>
    <g id="ytick_2">
     <g id="line2d_8">
      <g>
       <use xlink:href="#m031599073b" x="63" y="251.000894" style="stroke: #000000; stroke-width: 0.8"/>
      </g>
     </g>
     <g id="text_9">
      <!-- 6.5 -->
      <g transform="translate(40.096875 254.800113)scale(0.1 -0.1)">
       <defs>
        <path id="DejaVuSans-35" d="M 691 4666 
L 3169 4666 
L 3169 4134 
L 1269 4134 
L 1269 2991 
Q 1406 3038 1543 3061 
Q 1681 3084 1819 3084 
Q 2600 3084 3056 2656 
Q 3513 2228 3513 1497 
Q 3513 744 3044 326 
Q 2575 -91 1722 -91 
Q 1428 -91 1123 -41 
Q 819 9 494 109 
L 494 744 
Q 775 591 1075 516 
Q 1375 441 1709 441 
Q 2250 441 2565 725 
Q 2881 1009 2881 1497 
Q 2881 1984 2565 2268 
Q 2250 2553 1709 2553 
Q 1456 2553 1204 2497 
Q 953 2441 691 2322 
L 691 4666 
z
" transform="scale(0.015625)"/>
       </defs>
       <use xlink:href="#DejaVuSans-36"/>
       <use xlink:href="#DejaVuSans-2e" x="63.623047"/>
       <use xlink:href="#DejaVuSans-35" x="95.410156"/>
      </g>
     </g>
    </g>
    <g id="ytick_3">
     <g id="line2d_9">
      <g>
       <use xlink:href="#m031599073b" x="63" y="216.882467" style="stroke: #000000; stroke-width: 0.8"/>
      </g>
     </g>
     <g id="text_10">
      <!-- 7.0 -->
      <g transform="translate(40.096875 220.681685)scale(0.1 -0.1)">
       <defs>
        <path id="DejaVuSans-37" d="M 525 4666 
L 3525 4666 
L 3525 4397 
L 1831 0 
L 1172 0 
L 2766 4134 
L 525 4134 
L 525 4666 
z
" transform="scale(0.015625)"/>
       </defs>
       <use xlink:href="#DejaVuSans-37"/>
       <use xlink:href="#DejaVuSans-2e" x="63.623047"/>
       <use xlink:href="#DejaVuSans-30" x="95.410156"/>
      </g>
     </g>
    </g>
    <g id="ytick_4">
     <g id="line2d_10">
      <g>
       <use xlink:href="#m031599073b" x="63" y="182.764039" style="stroke: #000000; stroke-width: 0.8"/>
      </g>
     </g>
     <g id="text_11">
      <!-- 7.5 -->
      <g transform="translate(40.096875 186.563258)scale(0.1 -0.1)">
       <use xlink:href="#DejaVuSans-37"/>
       <use xlink:href="#DejaVuSans-2e" x="63.623047"/>
       <use xlink:href="#DejaVuSans-35" x="95.410156"/>
      </g>
     </g>
    </g>
    <g id="ytick_5">
     <g id="line2d_11">
      <g>
       <use xlink:href="#m031599073b" x="63" y="148.645612" style="stroke: #000000; stroke-width: 0.8"/>
      </g>
     </g>
     <g id="text_12">
      <!-- 8.0 -->
      <g transform="translate(40.096875 152.44483)scale(0.1 -0.1)">
       <use xlink:href="#DejaVuSans-38"/>
       <use xlink:href="#DejaVuSans-2e" x="63.623047"/>
       <use xlink:href="#DejaVuSans-30" x="95.410156"/>
      </g>
     </g>
    </g>
    <g id="ytick_6">
     <g id="line2d_12">
      <g>
       <use xlink:href="#m031599073b" x="63" y="114.527184" style="stroke: #000000; stroke-width: 0.8"/>
      </g>
     </g>
     <g id="text_13">
      <!-- 8.5 -->
      <g transform="translate(40.096875 118.326403)scale(0.1 -0.1)">
       <use xlink:href="#DejaVuSans-38"/>
       <use xlink:href="#DejaVuSans-2e" x="63.623047"/>
       <use xlink:href="#DejaVuSans-35" x="95.410156"/>
      </g>
     </g>
    </g>
    <g id="ytick_7">
     <g id="line2d_13">
      <g>
       <use xlink:href="#m031599073b" x="63" y="80.408756" style="stroke: #000000; stroke-width: 0.8"/>
      </g>
     </g>
     <g id="text_14">
      <!-- 9.0 -->
      <g transform="translate(40.096875 84.207975)scale(0.1 -0.1)">
       <defs>
        <path id="DejaVuSans-39" d="M 703 97 
L 703 672 
Q 941 559 1184 500 
Q 1428 441 1663 441 
Q 2288 441 2617 861 
Q 2947 1281 2994 2138 
Q 2813 1869 2534 1725 
Q 2256 1581 1919 1581 
Q 1219 1581 811 2004 
Q 403 2428 403 3163 
Q 403 3881 828 4315 
Q 1253 4750 1959 4750 
Q 2769 4750 3195 4129 
Q 3622 3509 3622 2328 
Q 3622 1225 3098 567 
Q 2575 -91 1691 -91 
Q 1453 -91 1209 -44 
Q 966 3 703 97 
z
M 1959 2075 
Q 2384 2075 2632 2365 
Q 2881 2656 2881 3163 
Q 2881 3666 2632 3958 
Q 2384 4250 1959 4250 
Q 1534 4250 1286 3958 
Q 1038 3666 1038 3163 
Q 1038 2656 1286 2365 
Q 1534 2075 1959 2075 
z
" transform="scale(0.015625)"/>
       </defs>
       <use xlink:href="#DejaVuSans-39"/>
       <use xlink:href="#DejaVuSans-2e" x="63.623047"/>
       <use xlink:href="#DejaVuSans-30" x="95.410156"/>
      </g>
     </g>
    </g>
    <g id="ytick_8">
     <g id="line2d_14">
      <g>
       <use xlink:href="#m031599073b" x="63" y="46.290329" style="stroke: #000000; stroke-width: 0.8"/>
      </g>
     </g>
     <g id="text_15">
      <!-- 9.5 -->
      <g transform="translate(40.096875 50.089548)scale(0.1 -0.1)">
       <use xlink:href="#DejaVuSans-39"/>
       <use xlink:href="#DejaVuSans-2e" x="63.623047"/>
       <use xlink:href="#DejaVuSans-35" x="95.410156"/>
      </g>
     </g>
    </g>
    <g id="text_16">
     <!-- $\log_{10}(\Gamma_0 / Hz)$ -->
     <g transform="translate(33.366875 217.255)rotate(-90)scale(0.13 -0.13)">
      <defs>
       <path id="DejaVuSans-Oblique-48" d="M 1081 4666 
L 1716 4666 
L 1344 2753 
L 3634 2753 
L 4006 4666 
L 4641 4666 
L 3731 0 
L 3097 0 
L 3531 2222 
L 1241 2222 
L 806 0 
L 172 0 
L 1081 4666 
z
" transform="scale(0.015625)"/>
       <path id="DejaVuSans-Oblique-7a" d="M 744 3500 
L 3475 3500 
L 3372 2975 
L 738 459 
L 2913 459 
L 2822 0 
L -19 0 
L 84 525 
L 2719 3041 
L 653 3041 
L 744 3500 
z
" transform="scale(0.015625)"/>
      </defs>
      <use xlink:href="#DejaVuSans-6c" transform="translate(0 0.015625)"/>
      <use xlink:href="#DejaVuSans-6f" transform="translate(27.783203 0.015625)"/>
      <use xlink:href="#DejaVuSans-67" transform="translate(88.964844 0.015625)"/>
      <use xlink:href="#DejaVuSans-31" transform="translate(153.398438 -16.390625)scale(0.7)"/>
      <use xlink:href="#DejaVuSans-30" transform="translate(197.93457 -16.390625)scale(0.7)"/>
      <use xlink:href="#DejaVuSans-28" transform="translate(245.205078 0.015625)"/>
      <use xlink:href="#DejaVuSans-393" transform="translate(284.21875 0.015625)"/>
      <use xlink:href="#DejaVuSans-30" transform="translate(340.888672 -16.390625)scale(0.7)"/>
      <use xlink:href="#DejaVuSans-2f" transform="translate(388.15918 0.015625)"/>
      <use xlink:href="#DejaVuSans-Oblique-48" transform="translate(420.100586 0.015625)"/>
      <use xlink:href="#DejaVuSans-Oblique-7a" transform="translate(495.295898 0.015625)"/>
      <use xlink:href="#DejaVuSans-29" transform="translate(547.786133 0.015625)"/>
     </g>
    </g>
   </g>
   <g id="line2d_15">
    <path d="M 80.754545 276.017258 
L 94.17292 268.491701 
L 106.516628 261.568859 
L 117.945116 255.15931 
L 128.584785 249.192161 
L 138.537529 243.610267 
L 147.886696 238.366883 
L 156.701325 233.42329 
L 165.039249 228.747051 
L 172.949394 224.310728 
L 180.473522 220.090898 
L 187.64756 216.067413 
L 194.502645 212.222809 
L 201.065935 208.541856 
L 207.361259 205.011188 
L 213.409643 201.619015 
L 219.22973 198.354878 
L 224.838131 195.209465 
L 230.249705 192.174439 
L 235.477799 189.242316 
L 240.53445 186.406346 
L 245.430544 183.660422 
L 250.175966 180.999002 
L 254.779711 178.417038 
L 259.249996 175.909925 
L 263.59434 173.473445 
L 267.819646 171.103725 
L 271.932264 168.797206 
L 275.938048 166.550603 
L 279.842409 164.360883 
L 283.650356 162.225235 
L 287.366536 160.141053 
L 290.995269 158.105916 
L 294.540575 156.117568 
L 298.006205 154.173905 
L 301.39566 152.272964 
L 304.712219 150.412906 
L 307.95895 148.592011 
L 311.138733 146.808662 
L 314.254274 145.061343 
L 317.308116 143.348627 
L 320.302657 141.66917 
L 323.240156 140.021704 
L 326.122745 138.405033 
L 328.95244 136.818028 
L 331.731146 135.25962 
L 334.460669 133.728795 
L 337.14272 132.224595 
L 339.778921 130.746108 
L 342.370814 129.292472 
L 344.919864 127.862863 
L 347.427465 126.456501 
L 349.894942 125.072642 
L 352.323559 123.710577 
L 354.714522 122.36963 
L 357.06898 121.049157 
L 359.388032 119.74854 
L 361.672726 118.467193 
L 363.924065 117.204553 
L 366.143011 115.96008 
L 368.33048 114.733261 
L 370.487355 113.5236 
L 372.614478 112.330624 
L 374.712661 111.15388 
L 376.782679 109.992932 
L 378.825278 108.847361 
L 380.841177 107.716765 
L 382.831063 106.600758 
L 384.795599 105.498968 
L 386.735424 104.411038 
L 388.651151 103.336622 
L 390.543371 102.27539 
L 392.412655 101.227021 
L 394.259551 100.191209 
L 396.084591 99.167654 
L 397.888284 98.156071 
L 399.671125 97.156183 
L 401.43359 96.167723 
L 403.17614 95.190432 
L 404.899219 94.22406 
L 406.603259 93.268367 
L 408.288675 92.323119 
L 409.95587 91.38809 
L 411.605233 90.463062 
L 413.237143 89.547822 
L 414.851964 88.642166 
L 416.450051 87.745895 
L 418.031748 86.858817 
L 419.597386 85.980745 
L 421.147288 85.111498 
L 422.681769 84.250901 
L 424.201131 83.398782 
L 425.70567 82.554977 
L 427.195672 81.719325 
L 428.671416 80.891669 
L 430.133171 80.071859 
L 431.581201 79.259746 
L 433.01576 78.455189 
L 434.437098 77.658046 
L 435.845455 76.868184 
" clip-path="url(#pd7289ac0ee)" style="fill: none; stroke: #000000; stroke-width: 1.5; stroke-linecap: square"/>
   </g>
   <g id="patch_3">
    <path d="M 63 315 
L 63 43.2 
" style="fill: none; stroke: #000000; stroke-width: 0.8; stroke-linejoin: miter; stroke-linecap: square"/>
   </g>
   <g id="patch_4">
    <path d="M 453.6 315 
L 453.6 43.2 
" style="fill: none; stroke: #000000; stroke-width: 0.8; stroke-linejoin: miter; stroke-linecap: square"/>
   </g>
   <g id="patch_5">
    <path d="M 63 315 
L 453.6 315 
" style="fill: none; stroke: #000000; stroke-width: 0.8; stroke-linejoin: miter; stroke-linecap: square"/>
   </g>
   <g id="patch_6">
    <path d="M 63 43.2 
L 453.6 43.2 
" style="fill: none; stroke: #000000; stroke-width: 0.8; stroke-linejoin: miter; stroke-linecap: square"/>
   </g>
   <g id="text_17">
    <!-- Slope = 2.918 -->
    <g transform="translate(141.12 80.763281)scale(0.15 -0.15)">
     <defs>
      <path id="DejaVuSans-53" d="M 3425 4513 
L 3425 3897 
Q 3066 4069 2747 4153 
Q 2428 4238 2131 4238 
Q 1616 4238 1336 4038 
Q 1056 3838 1056 3469 
Q 1056 3159 1242 3001 
Q 1428 2844 1947 2747 
L 2328 2669 
Q 3034 2534 3370 2195 
Q 3706 1856 3706 1288 
Q 3706 609 3251 259 
Q 2797 -91 1919 -91 
Q 1588 -91 1214 -16 
Q 841 59 441 206 
L 441 856 
Q 825 641 1194 531 
Q 1563 422 1919 422 
Q 2459 422 2753 634 
Q 3047 847 3047 1241 
Q 3047 1584 2836 1778 
Q 2625 1972 2144 2069 
L 1759 2144 
Q 1053 2284 737 2584 
Q 422 2884 422 3419 
Q 422 4038 858 4394 
Q 1294 4750 2059 4750 
Q 2388 4750 2728 4690 
Q 3069 4631 3425 4513 
z
" transform="scale(0.015625)"/>
      <path id="DejaVuSans-70" d="M 1159 525 
L 1159 -1331 
L 581 -1331 
L 581 3500 
L 1159 3500 
L 1159 2969 
Q 1341 3281 1617 3432 
Q 1894 3584 2278 3584 
Q 2916 3584 3314 3078 
Q 3713 2572 3713 1747 
Q 3713 922 3314 415 
Q 2916 -91 2278 -91 
Q 1894 -91 1617 61 
Q 1341 213 1159 525 
z
M 3116 1747 
Q 3116 2381 2855 2742 
Q 2594 3103 2138 3103 
Q 1681 3103 1420 2742 
Q 1159 2381 1159 1747 
Q 1159 1113 1420 752 
Q 1681 391 2138 391 
Q 2594 391 2855 752 
Q 3116 1113 3116 1747 
z
" transform="scale(0.015625)"/>
      <path id="DejaVuSans-65" d="M 3597 1894 
L 3597 1613 
L 953 1613 
Q 991 1019 1311 708 
Q 1631 397 2203 397 
Q 2534 397 2845 478 
Q 3156 559 3463 722 
L 3463 178 
Q 3153 47 2828 -22 
Q 2503 -91 2169 -91 
Q 1331 -91 842 396 
Q 353 884 353 1716 
Q 353 2575 817 3079 
Q 1281 3584 2069 3584 
Q 2775 3584 3186 3129 
Q 3597 2675 3597 1894 
z
M 3022 2063 
Q 3016 2534 2758 2815 
Q 2500 3097 2075 3097 
Q 1594 3097 1305 2825 
Q 1016 2553 972 2059 
L 3022 2063 
z
" transform="scale(0.015625)"/>
      <path id="DejaVuSans-20" transform="scale(0.015625)"/>
      <path id="DejaVuSans-3d" d="M 678 2906 
L 4684 2906 
L 4684 2381 
L 678 2381 
L 678 2906 
z
M 678 1631 
L 4684 1631 
L 4684 1100 
L 678 1100 
L 678 1631 
z
" transform="scale(0.015625)"/>
     </defs>
     <use xlink:href="#DejaVuSans-53"/>
     <use xlink:href="#DejaVuSans-6c" x="63.476562"/>
     <use xlink:href="#DejaVuSans-6f" x="91.259766"/>
     <use xlink:href="#DejaVuSans-70" x="152.441406"/>
     <use xlink:href="#DejaVuSans-65" x="215.917969"/>
     <use xlink:href="#DejaVuSans-20" x="277.441406"/>
     <use xlink:href="#DejaVuSans-3d" x="309.228516"/>
     <use xlink:href="#DejaVuSans-20" x="393.017578"/>
     <use xlink:href="#DejaVuSans-32" x="424.804688"/>
     <use xlink:href="#DejaVuSans-2e" x="488.427734"/>
     <use xlink:href="#DejaVuSans-39" x="520.214844"/>
     <use xlink:href="#DejaVuSans-31" x="583.837891"/>
     <use xlink:href="#DejaVuSans-38" x="647.460938"/>
    </g>
    <!-- Intercept = 11.970 -->
    <g transform="translate(141.12 97.56)scale(0.15 -0.15)">
     <defs>
      <path id="DejaVuSans-49" d="M 628 4666 
L 1259 4666 
L 1259 0 
L 628 0 
L 628 4666 
z
" transform="scale(0.015625)"/>
      <path id="DejaVuSans-6e" d="M 3513 2113 
L 3513 0 
L 2938 0 
L 2938 2094 
Q 2938 2591 2744 2837 
Q 2550 3084 2163 3084 
Q 1697 3084 1428 2787 
Q 1159 2491 1159 1978 
L 1159 0 
L 581 0 
L 581 3500 
L 1159 3500 
L 1159 2956 
Q 1366 3272 1645 3428 
Q 1925 3584 2291 3584 
Q 2894 3584 3203 3211 
Q 3513 2838 3513 2113 
z
" transform="scale(0.015625)"/>
      <path id="DejaVuSans-74" d="M 1172 4494 
L 1172 3500 
L 2356 3500 
L 2356 3053 
L 1172 3053 
L 1172 1153 
Q 1172 725 1289 603 
Q 1406 481 1766 481 
L 2356 481 
L 2356 0 
L 1766 0 
Q 1100 0 847 248 
Q 594 497 594 1153 
L 594 3053 
L 172 3053 
L 172 3500 
L 594 3500 
L 594 4494 
L 1172 4494 
z
" transform="scale(0.015625)"/>
      <path id="DejaVuSans-72" d="M 2631 2963 
Q 2534 3019 2420 3045 
Q 2306 3072 2169 3072 
Q 1681 3072 1420 2755 
Q 1159 2438 1159 1844 
L 1159 0 
L 581 0 
L 581 3500 
L 1159 3500 
L 1159 2956 
Q 1341 3275 1631 3429 
Q 1922 3584 2338 3584 
Q 2397 3584 2469 3576 
Q 2541 3569 2628 3553 
L 2631 2963 
z
" transform="scale(0.015625)"/>
      <path id="DejaVuSans-63" d="M 3122 3366 
L 3122 2828 
Q 2878 2963 2633 3030 
Q 2388 3097 2138 3097 
Q 1578 3097 1268 2742 
Q 959 2388 959 1747 
Q 959 1106 1268 751 
Q 1578 397 2138 397 
Q 2388 397 2633 464 
Q 2878 531 3122 666 
L 3122 134 
Q 2881 22 2623 -34 
Q 2366 -91 2075 -91 
Q 1284 -91 818 406 
Q 353 903 353 1747 
Q 353 2603 823 3093 
Q 1294 3584 2113 3584 
Q 2378 3584 2631 3529 
Q 2884 3475 3122 3366 
z
" transform="scale(0.015625)"/>
     </defs>
     <use xlink:href="#DejaVuSans-49"/>
     <use xlink:href="#DejaVuSans-6e" x="29.492188"/>
     <use xlink:href="#DejaVuSans-74" x="92.871094"/>
     <use xlink:href="#DejaVuSans-65" x="132.080078"/>
     <use xlink:href="#DejaVuSans-72" x="193.603516"/>
     <use xlink:href="#DejaVuSans-63" x="232.466797"/>
     <use xlink:href="#DejaVuSans-65" x="287.447266"/>
     <use xlink:href="#DejaVuSans-70" x="348.970703"/>
     <use xlink:href="#DejaVuSans-74" x="412.447266"/>
     <use xlink:href="#DejaVuSans-20" x="451.65625"/>
     <use xlink:href="#DejaVuSans-3d" x="483.443359"/>
     <use xlink:href="#DejaVuSans-20" x="567.232422"/>
     <use xlink:href="#DejaVuSans-31" x="599.019531"/>
     <use xlink:href="#DejaVuSans-31" x="662.642578"/>
     <use xlink:href="#DejaVuSans-2e" x="726.265625"/>
     <use xlink:href="#DejaVuSans-39" x="758.052734"/>
     <use xlink:href="#DejaVuSans-37" x="821.675781"/>
     <use xlink:href="#DejaVuSans-30" x="885.298828"/>
    </g>
   </g>
   <g id="text_18">
    <!-- $\log_{10}(\Gamma_0 / Hz)$ vs $\log_{10}(\Gamma_t / meV)$ -->
    <g transform="translate(165.155 41.277)scale(0.13 -0.13)">
     <defs>
      <path id="DejaVuSans-76" d="M 191 3500 
L 800 3500 
L 1894 563 
L 2988 3500 
L 3597 3500 
L 2284 0 
L 1503 0 
L 191 3500 
z
" transform="scale(0.015625)"/>
      <path id="DejaVuSans-73" d="M 2834 3397 
L 2834 2853 
Q 2591 2978 2328 3040 
Q 2066 3103 1784 3103 
Q 1356 3103 1142 2972 
Q 928 2841 928 2578 
Q 928 2378 1081 2264 
Q 1234 2150 1697 2047 
L 1894 2003 
Q 2506 1872 2764 1633 
Q 3022 1394 3022 966 
Q 3022 478 2636 193 
Q 2250 -91 1575 -91 
Q 1294 -91 989 -36 
Q 684 19 347 128 
L 347 722 
Q 666 556 975 473 
Q 1284 391 1588 391 
Q 1994 391 2212 530 
Q 2431 669 2431 922 
Q 2431 1156 2273 1281 
Q 2116 1406 1581 1522 
L 1381 1569 
Q 847 1681 609 1914 
Q 372 2147 372 2553 
Q 372 3047 722 3315 
Q 1072 3584 1716 3584 
Q 2034 3584 2315 3537 
Q 2597 3491 2834 3397 
z
" transform="scale(0.015625)"/>
     </defs>
     <use xlink:href="#DejaVuSans-6c" transform="translate(0 0.015625)"/>
     <use xlink:href="#DejaVuSans-6f" transform="translate(27.783203 0.015625)"/>
     <use xlink:href="#DejaVuSans-67" transform="translate(88.964844 0.015625)"/>
     <use xlink:href="#DejaVuSans-31" transform="translate(153.398438 -16.390625)scale(0.7)"/>
     <use xlink:href="#DejaVuSans-30" transform="translate(197.93457 -16.390625)scale(0.7)"/>
     <use xlink:href="#DejaVuSans-28" transform="translate(245.205078 0.015625)"/>
     <use xlink:href="#DejaVuSans-393" transform="translate(284.21875 0.015625)"/>
     <use xlink:href="#DejaVuSans-30" transform="translate(340.888672 -16.390625)scale(0.7)"/>
     <use xlink:href="#DejaVuSans-2f" transform="translate(388.15918 0.015625)"/>
     <use xlink:href="#DejaVuSans-Oblique-48" transform="translate(420.100586 0.015625)"/>
     <use xlink:href="#DejaVuSans-Oblique-7a" transform="translate(495.295898 0.015625)"/>
     <use xlink:href="#DejaVuSans-29" transform="translate(547.786133 0.015625)"/>
     <use xlink:href="#DejaVuSans-20" transform="translate(586.799805 0.015625)"/>
     <use xlink:href="#DejaVuSans-76" transform="translate(618.586914 0.015625)"/>
     <use xlink:href="#DejaVuSans-73" transform="translate(677.766602 0.015625)"/>
     <use xlink:href="#DejaVuSans-20" transform="translate(729.866211 0.015625)"/>
     <use xlink:href="#DejaVuSans-6c" transform="translate(761.65332 0.015625)"/>
     <use xlink:href="#DejaVuSans-6f" transform="translate(789.436523 0.015625)"/>
     <use xlink:href="#DejaVuSans-67" transform="translate(850.618164 0.015625)"/>
     <use xlink:href="#DejaVuSans-31" transform="translate(915.051758 -16.390625)scale(0.7)"/>
     <use xlink:href="#DejaVuSans-30" transform="translate(959.587891 -16.390625)scale(0.7)"/>
     <use xlink:href="#DejaVuSans-28" transform="translate(1006.858398 0.015625)"/>
     <use xlink:href="#DejaVuSans-393" transform="translate(1045.87207 0.015625)"/>
     <use xlink:href="#DejaVuSans-Oblique-74" transform="translate(1102.541992 -16.390625)scale(0.7)"/>
     <use xlink:href="#DejaVuSans-2f" transform="translate(1132.722656 0.015625)"/>
     <use xlink:href="#DejaVuSans-Oblique-6d" transform="translate(1166.414062 0.015625)"/>
     <use xlink:href="#DejaVuSans-Oblique-65" transform="translate(1263.826172 0.015625)"/>
     <use xlink:href="#DejaVuSans-Oblique-56" transform="translate(1325.349609 0.015625)"/>
     <use xlink:href="#DejaVuSans-29" transform="translate(1393.757812 0.015625)"/>
    </g>
   </g>
  </g>
  <g id="text_19">
   <g id="patch_7">
    <path d="M 57.45 23.25 
L 446.55 23.25 
L 446.55 5.55 
L 57.45 5.55 
z
" style="fill: #f0ffff; stroke: #000000; stroke-linejoin: miter"/>
   </g>
   <!-- $T = 105.891 mK $            $\alpha        = 0.829 $            $U       = 0.416 meV $            $log_{10} N   = 6.093$ -->
   <g transform="translate(61.45 17.15)scale(0.1 -0.1)">
    <defs>
     <path id="DejaVuSans-Oblique-54" d="M 378 4666 
L 4325 4666 
L 4225 4134 
L 2559 4134 
L 1759 0 
L 1125 0 
L 1925 4134 
L 275 4134 
L 378 4666 
z
" transform="scale(0.015625)"/>
     <path id="DejaVuSans-Oblique-4b" d="M 1081 4666 
L 1716 4666 
L 1331 2700 
L 3781 4666 
L 4622 4666 
L 1850 2438 
L 3878 0 
L 3109 0 
L 1247 2272 
L 806 0 
L 172 0 
L 1081 4666 
z
" transform="scale(0.015625)"/>
     <path id="DejaVuSans-Oblique-3b1" d="M 2619 1628 
L 2622 2350 
Q 2625 3088 2069 3091 
Q 1653 3094 1394 2747 
Q 1069 2319 959 1747 
Q 825 1059 994 731 
Q 1169 397 1547 397 
Q 1966 397 2319 1063 
L 2619 1628 
z
M 2166 3578 
Q 3141 3594 3128 2584 
Q 3128 2584 3616 3500 
L 4128 3500 
L 3119 1603 
L 3109 919 
Q 3109 766 3194 638 
Q 3291 488 3391 488 
L 3669 488 
L 3575 0 
L 3228 0 
Q 2934 0 2722 263 
Q 2622 394 2619 669 
Q 2416 334 2066 50 
Q 1900 -81 1453 -78 
Q 722 -72 456 397 
Q 184 884 353 1747 
Q 534 2675 1009 3097 
Q 1544 3569 2166 3578 
z
" transform="scale(0.015625)"/>
     <path id="DejaVuSans-Oblique-55" d="M 991 4666 
L 1625 4666 
L 1075 1831 
Q 1041 1641 1027 1517 
Q 1013 1394 1013 1300 
Q 1013 869 1253 645 
Q 1494 422 1959 422 
Q 2563 422 2898 753 
Q 3234 1084 3378 1831 
L 3928 4666 
L 4563 4666 
L 4000 1753 
Q 3816 809 3300 359 
Q 2784 -91 1888 -91 
Q 1188 -91 780 261 
Q 372 613 372 1216 
Q 372 1325 387 1461 
Q 403 1597 434 1753 
L 991 4666 
z
" transform="scale(0.015625)"/>
     <path id="DejaVuSans-Oblique-6c" d="M 1172 4863 
L 1747 4863 
L 800 0 
L 225 0 
L 1172 4863 
z
" transform="scale(0.015625)"/>
     <path id="DejaVuSans-Oblique-6f" d="M 1625 -91 
Q 1009 -91 651 289 
Q 294 669 294 1325 
Q 294 1706 417 2101 
Q 541 2497 738 2766 
Q 1047 3184 1428 3384 
Q 1809 3584 2291 3584 
Q 2888 3584 3255 3212 
Q 3622 2841 3622 2241 
Q 3622 1825 3500 1412 
Q 3378 1000 3181 728 
Q 2875 309 2494 109 
Q 2113 -91 1625 -91 
z
M 891 1344 
Q 891 869 1089 633 
Q 1288 397 1691 397 
Q 2269 397 2648 901 
Q 3028 1406 3028 2181 
Q 3028 2634 2825 2865 
Q 2622 3097 2228 3097 
Q 1903 3097 1650 2945 
Q 1397 2794 1197 2484 
Q 1050 2253 970 1956 
Q 891 1659 891 1344 
z
" transform="scale(0.015625)"/>
     <path id="DejaVuSans-Oblique-67" d="M 3816 3500 
L 3219 434 
Q 3047 -456 2561 -893 
Q 2075 -1331 1253 -1331 
Q 950 -1331 690 -1286 
Q 431 -1241 206 -1147 
L 313 -588 
Q 525 -725 762 -790 
Q 1000 -856 1269 -856 
Q 1816 -856 2167 -557 
Q 2519 -259 2631 300 
L 2681 563 
Q 2441 288 2122 144 
Q 1803 0 1434 0 
Q 903 0 598 351 
Q 294 703 294 1319 
Q 294 1803 478 2267 
Q 663 2731 997 3091 
Q 1219 3328 1514 3456 
Q 1809 3584 2131 3584 
Q 2484 3584 2746 3420 
Q 3009 3256 3138 2956 
L 3238 3500 
L 3816 3500 
z
M 2950 2216 
Q 2950 2641 2750 2872 
Q 2550 3103 2181 3103 
Q 1953 3103 1747 3012 
Q 1541 2922 1394 2759 
Q 1156 2491 1023 2127 
Q 891 1763 891 1375 
Q 891 944 1092 712 
Q 1294 481 1672 481 
Q 2219 481 2584 976 
Q 2950 1472 2950 2216 
z
" transform="scale(0.015625)"/>
     <path id="DejaVuSans-Oblique-4e" d="M 1081 4666 
L 1931 4666 
L 3219 666 
L 4000 4666 
L 4616 4666 
L 3706 0 
L 2853 0 
L 1569 4025 
L 788 0 
L 172 0 
L 1081 4666 
z
" transform="scale(0.015625)"/>
     <path id="DejaVuSans-33" d="M 2597 2516 
Q 3050 2419 3304 2112 
Q 3559 1806 3559 1356 
Q 3559 666 3084 287 
Q 2609 -91 1734 -91 
Q 1441 -91 1130 -33 
Q 819 25 488 141 
L 488 750 
Q 750 597 1062 519 
Q 1375 441 1716 441 
Q 2309 441 2620 675 
Q 2931 909 2931 1356 
Q 2931 1769 2642 2001 
Q 2353 2234 1838 2234 
L 1294 2234 
L 1294 2753 
L 1863 2753 
Q 2328 2753 2575 2939 
Q 2822 3125 2822 3475 
Q 2822 3834 2567 4026 
Q 2313 4219 1838 4219 
Q 1578 4219 1281 4162 
Q 984 4106 628 3988 
L 628 4550 
Q 988 4650 1302 4700 
Q 1616 4750 1894 4750 
Q 2613 4750 3031 4423 
Q 3450 4097 3450 3541 
Q 3450 3153 3228 2886 
Q 3006 2619 2597 2516 
z
" transform="scale(0.015625)"/>
    </defs>
    <use xlink:href="#DejaVuSans-Oblique-54" transform="translate(0 0.015625)"/>
    <use xlink:href="#DejaVuSans-3d" transform="translate(80.566406 0.015625)"/>
    <use xlink:href="#DejaVuSans-31" transform="translate(183.837891 0.015625)"/>
    <use xlink:href="#DejaVuSans-30" transform="translate(247.460938 0.015625)"/>
    <use xlink:href="#DejaVuSans-35" transform="translate(311.083984 0.015625)"/>
    <use xlink:href="#DejaVuSans-2e" transform="translate(374.707031 0.015625)"/>
    <use xlink:href="#DejaVuSans-38" transform="translate(403.869141 0.015625)"/>
    <use xlink:href="#DejaVuSans-39" transform="translate(467.492188 0.015625)"/>
    <use xlink:href="#DejaVuSans-31" transform="translate(531.115234 0.015625)"/>
    <use xlink:href="#DejaVuSans-Oblique-6d" transform="translate(594.738281 0.015625)"/>
    <use xlink:href="#DejaVuSans-Oblique-4b" transform="translate(692.150391 0.015625)"/>
    <use xlink:href="#DejaVuSans-20" transform="translate(757.726562 0.015625)"/>
    <use xlink:href="#DejaVuSans-20" transform="translate(789.513672 0.015625)"/>
    <use xlink:href="#DejaVuSans-20" transform="translate(821.300781 0.015625)"/>
    <use xlink:href="#DejaVuSans-20" transform="translate(853.087891 0.015625)"/>
    <use xlink:href="#DejaVuSans-20" transform="translate(884.875 0.015625)"/>
    <use xlink:href="#DejaVuSans-20" transform="translate(916.662109 0.015625)"/>
    <use xlink:href="#DejaVuSans-20" transform="translate(948.449219 0.015625)"/>
    <use xlink:href="#DejaVuSans-20" transform="translate(980.236328 0.015625)"/>
    <use xlink:href="#DejaVuSans-20" transform="translate(1012.023438 0.015625)"/>
    <use xlink:href="#DejaVuSans-20" transform="translate(1043.810547 0.015625)"/>
    <use xlink:href="#DejaVuSans-20" transform="translate(1075.597656 0.015625)"/>
    <use xlink:href="#DejaVuSans-20" transform="translate(1107.384766 0.015625)"/>
    <use xlink:href="#DejaVuSans-Oblique-3b1" transform="translate(1139.171875 0.015625)"/>
    <use xlink:href="#DejaVuSans-3d" transform="translate(1224.572266 0.015625)"/>
    <use xlink:href="#DejaVuSans-30" transform="translate(1327.84375 0.015625)"/>
    <use xlink:href="#DejaVuSans-2e" transform="translate(1391.466797 0.015625)"/>
    <use xlink:href="#DejaVuSans-38" transform="translate(1420.628906 0.015625)"/>
    <use xlink:href="#DejaVuSans-32" transform="translate(1484.251953 0.015625)"/>
    <use xlink:href="#DejaVuSans-39" transform="translate(1546.125 0.015625)"/>
    <use xlink:href="#DejaVuSans-20" transform="translate(1609.748047 0.015625)"/>
    <use xlink:href="#DejaVuSans-20" transform="translate(1641.535156 0.015625)"/>
    <use xlink:href="#DejaVuSans-20" transform="translate(1673.322266 0.015625)"/>
    <use xlink:href="#DejaVuSans-20" transform="translate(1705.109375 0.015625)"/>
    <use xlink:href="#DejaVuSans-20" transform="translate(1736.896484 0.015625)"/>
    <use xlink:href="#DejaVuSans-20" transform="translate(1768.683594 0.015625)"/>
    <use xlink:href="#DejaVuSans-20" transform="translate(1800.470703 0.015625)"/>
    <use xlink:href="#DejaVuSans-20" transform="translate(1832.257812 0.015625)"/>
    <use xlink:href="#DejaVuSans-20" transform="translate(1864.044922 0.015625)"/>
    <use xlink:href="#DejaVuSans-20" transform="translate(1895.832031 0.015625)"/>
    <use xlink:href="#DejaVuSans-20" transform="translate(1927.619141 0.015625)"/>
    <use xlink:href="#DejaVuSans-20" transform="translate(1959.40625 0.015625)"/>
    <use xlink:href="#DejaVuSans-Oblique-55" transform="translate(1991.193359 0.015625)"/>
    <use xlink:href="#DejaVuSans-3d" transform="translate(2083.869141 0.015625)"/>
    <use xlink:href="#DejaVuSans-30" transform="translate(2187.140625 0.015625)"/>
    <use xlink:href="#DejaVuSans-2e" transform="translate(2250.763672 0.015625)"/>
    <use xlink:href="#DejaVuSans-34" transform="translate(2282.550781 0.015625)"/>
    <use xlink:href="#DejaVuSans-31" transform="translate(2346.173828 0.015625)"/>
    <use xlink:href="#DejaVuSans-36" transform="translate(2409.796875 0.015625)"/>
    <use xlink:href="#DejaVuSans-Oblique-6d" transform="translate(2473.419922 0.015625)"/>
    <use xlink:href="#DejaVuSans-Oblique-65" transform="translate(2570.832031 0.015625)"/>
    <use xlink:href="#DejaVuSans-Oblique-56" transform="translate(2632.355469 0.015625)"/>
    <use xlink:href="#DejaVuSans-20" transform="translate(2700.763672 0.015625)"/>
    <use xlink:href="#DejaVuSans-20" transform="translate(2732.550781 0.015625)"/>
    <use xlink:href="#DejaVuSans-20" transform="translate(2764.337891 0.015625)"/>
    <use xlink:href="#DejaVuSans-20" transform="translate(2796.125 0.015625)"/>
    <use xlink:href="#DejaVuSans-20" transform="translate(2827.912109 0.015625)"/>
    <use xlink:href="#DejaVuSans-20" transform="translate(2859.699219 0.015625)"/>
    <use xlink:href="#DejaVuSans-20" transform="translate(2891.486328 0.015625)"/>
    <use xlink:href="#DejaVuSans-20" transform="translate(2923.273438 0.015625)"/>
    <use xlink:href="#DejaVuSans-20" transform="translate(2955.060547 0.015625)"/>
    <use xlink:href="#DejaVuSans-20" transform="translate(2986.847656 0.015625)"/>
    <use xlink:href="#DejaVuSans-20" transform="translate(3018.634766 0.015625)"/>
    <use xlink:href="#DejaVuSans-20" transform="translate(3050.421875 0.015625)"/>
    <use xlink:href="#DejaVuSans-Oblique-6c" transform="translate(3082.208984 0.015625)"/>
    <use xlink:href="#DejaVuSans-Oblique-6f" transform="translate(3109.992188 0.015625)"/>
    <use xlink:href="#DejaVuSans-Oblique-67" transform="translate(3171.173828 0.015625)"/>
    <use xlink:href="#DejaVuSans-31" transform="translate(3234.650391 -16.390625)scale(0.7)"/>
    <use xlink:href="#DejaVuSans-30" transform="translate(3279.186523 -16.390625)scale(0.7)"/>
    <use xlink:href="#DejaVuSans-Oblique-4e" transform="translate(3326.457031 0.015625)"/>
    <use xlink:href="#DejaVuSans-3d" transform="translate(3420.744141 0.015625)"/>
    <use xlink:href="#DejaVuSans-36" transform="translate(3524.015625 0.015625)"/>
    <use xlink:href="#DejaVuSans-2e" transform="translate(3587.638672 0.015625)"/>
    <use xlink:href="#DejaVuSans-30" transform="translate(3619.425781 0.015625)"/>
    <use xlink:href="#DejaVuSans-39" transform="translate(3683.048828 0.015625)"/>
    <use xlink:href="#DejaVuSans-33" transform="translate(3746.671875 0.015625)"/>
   </g>
  </g>
 </g>
 <defs>
  <clipPath id="pd7289ac0ee">
   <rect x="63" y="43.2" width="390.6" height="271.8"/>
  </clipPath>
 </defs>
</svg>
